<?xml version="1.0" encoding="UTF-8"?>
<svg xmlns="http://www.w3.org/2000/svg" xmlns:xlink="http://www.w3.org/1999/xlink" width="167px" height="12px" viewBox="0 0 170 12" version="1.1">
<g id="surface1">
<path style=" stroke:none;fill-rule:nonzero;fill:rgb(0%,0%,0%);fill-opacity:1;" d="M 87.175781 0.136719 C 86.902344 0.203125 86.496094 0.347656 86.265625 0.46875 C 85.765625 0.714844 83.757812 2.386719 83.496094 2.769531 C 83.121094 3.324219 83.085938 3.628906 83.085938 6.605469 C 83.085938 9.109375 83.105469 9.46875 83.242188 9.886719 C 83.539062 10.773438 84.191406 11.402344 85.210938 11.769531 C 85.636719 11.921875 85.960938 11.964844 87.21875 12 C 88.933594 12.042969 89.667969 11.949219 90.414062 11.597656 C 91 11.316406 92.988281 9.671875 93.289062 9.222656 C 93.628906 8.703125 93.660156 8.292969 93.671875 5.25 C 93.671875 2.054688 93.617188 1.652344 93.160156 1.089844 C 92.835938 0.699219 92.019531 0.273438 91.316406 0.128906 C 90.542969 -0.0429688 87.871094 -0.0351562 87.175781 0.136719 Z M 91.417969 0.289062 C 92.445312 0.578125 93.015625 1.003906 93.339844 1.738281 C 93.527344 2.15625 93.535156 2.292969 93.566406 4.753906 C 93.617188 8.496094 93.484375 9.144531 92.582031 9.722656 C 91.835938 10.203125 91.230469 10.328125 89.625 10.378906 C 87.449219 10.441406 86.25 10.140625 85.5625 9.375 C 85.027344 8.777344 84.992188 8.503906 85.015625 5.097656 L 85.042969 2.078125 L 85.296875 1.566406 C 85.6875 0.808594 86.367188 0.410156 87.703125 0.171875 C 88.359375 0.0507812 90.832031 0.136719 91.417969 0.289062 Z M 91.417969 0.289062 "/>
<path style=" stroke:none;fill-rule:nonzero;fill:rgb(0%,0%,0%);fill-opacity:1;" d="M 88.230469 1.414062 C 87.21875 1.609375 86.699219 2.054688 86.53125 2.855469 C 86.460938 3.179688 86.4375 4.082031 86.460938 5.574219 L 86.488281 7.816406 L 86.742188 8.222656 C 86.914062 8.503906 87.125 8.703125 87.378906 8.839844 C 88.171875 9.238281 90.3125 9.246094 91.121094 8.839844 C 91.347656 8.726562 91.605469 8.503906 91.757812 8.285156 L 92.011719 7.910156 L 92.039062 5.429688 C 92.0625 2.667969 92.039062 2.480469 91.519531 1.976562 C 91.09375 1.566406 90.628906 1.433594 89.460938 1.40625 C 88.902344 1.390625 88.347656 1.398438 88.230469 1.414062 Z M 90.957031 1.765625 C 91.171875 1.859375 91.460938 2.089844 91.597656 2.265625 L 91.84375 2.582031 L 91.867188 5.140625 C 91.894531 7.59375 91.886719 7.703125 91.707031 8.0625 C 91.367188 8.769531 90.371094 9.101562 88.875 9.007812 C 87.933594 8.949219 87.550781 8.839844 87.203125 8.546875 C 86.648438 8.078125 86.613281 7.902344 86.613281 5.242188 C 86.613281 3.101562 86.632812 2.820312 86.777344 2.515625 C 87.132812 1.738281 87.710938 1.527344 89.378906 1.558594 C 90.371094 1.578125 90.628906 1.609375 90.957031 1.765625 Z M 90.957031 1.765625 "/>
<path style=" stroke:none;fill-rule:nonzero;fill:rgb(0%,0%,0%);fill-opacity:1;" d="M 88.832031 2.8125 C 88.136719 2.890625 88.144531 2.855469 88.144531 5.285156 C 88.144531 7.847656 88.078125 7.714844 89.308594 7.714844 C 90.492188 7.714844 90.441406 7.824219 90.441406 5.285156 C 90.441406 3.441406 90.421875 3.238281 90.285156 3.066406 C 90.101562 2.839844 89.546875 2.746094 88.832031 2.8125 Z M 88.484375 6.085938 C 88.476562 7.378906 88.46875 7.527344 88.359375 7.378906 C 88.171875 7.132812 88.171875 4.5 88.359375 4.566406 C 88.46875 4.609375 88.484375 4.859375 88.484375 6.085938 Z M 88.484375 6.085938 "/>
<path style=" stroke:none;fill-rule:nonzero;fill:rgb(0%,0%,0%);fill-opacity:1;" d="M 151.683594 0.0507812 C 150.542969 0.289062 150.203125 0.476562 148.878906 1.601562 C 147.652344 2.625 147.550781 2.746094 147.355469 3.410156 C 147.160156 4.058594 147.160156 9.007812 147.347656 9.742188 C 147.636719 10.859375 148.445312 11.574219 149.785156 11.890625 C 150.628906 12.085938 152.964844 12.058594 153.808594 11.847656 C 154.648438 11.632812 154.945312 11.453125 156.144531 10.441406 C 157.308594 9.453125 157.453125 9.289062 157.648438 8.734375 C 157.785156 8.359375 157.800781 7.976562 157.800781 5.285156 C 157.800781 1.867188 157.777344 1.6875 157.222656 1.058594 C 156.519531 0.253906 155.585938 0 153.390625 0.0078125 C 152.539062 0.015625 151.777344 0.0351562 151.683594 0.0507812 Z M 155.59375 0.296875 C 156.570312 0.570312 157.113281 0.953125 157.429688 1.59375 C 157.632812 1.996094 157.632812 2.046875 157.65625 5.054688 C 157.691406 8.503906 157.65625 8.769531 157.113281 9.375 C 156.417969 10.140625 155.234375 10.441406 153.042969 10.378906 C 151.410156 10.328125 150.78125 10.183594 150.058594 9.683594 C 149.183594 9.085938 149.066406 8.445312 149.105469 4.773438 C 149.132812 2.285156 149.140625 2.15625 149.328125 1.746094 C 149.4375 1.507812 149.640625 1.203125 149.785156 1.046875 C 150.117188 0.707031 150.910156 0.347656 151.675781 0.203125 C 152.507812 0.0429688 154.894531 0.101562 155.59375 0.296875 Z M 155.59375 0.296875 "/>
<path style=" stroke:none;fill-rule:nonzero;fill:rgb(0%,0%,0%);fill-opacity:1;" d="M 152.175781 1.449219 C 151.605469 1.566406 151.148438 1.847656 150.902344 2.234375 L 150.664062 2.582031 L 150.636719 5.105469 C 150.601562 7.925781 150.636719 8.121094 151.179688 8.597656 C 151.605469 8.984375 152.234375 9.136719 153.382812 9.136719 C 154.539062 9.136719 155.160156 8.984375 155.601562 8.582031 C 156.128906 8.121094 156.144531 8.035156 156.144531 5.242188 C 156.144531 2.933594 156.128906 2.691406 155.984375 2.402344 C 155.78125 1.996094 155.601562 1.839844 155.082031 1.609375 C 154.734375 1.457031 154.46875 1.414062 153.59375 1.398438 C 153.007812 1.378906 152.371094 1.40625 152.175781 1.449219 Z M 155.132812 1.773438 C 155.550781 1.976562 155.804688 2.265625 155.957031 2.71875 C 156.09375 3.101562 156.09375 7.320312 155.964844 7.796875 C 155.839844 8.25 155.347656 8.71875 154.820312 8.871094 C 154.554688 8.949219 154.003906 8.992188 153.296875 8.992188 C 152.242188 8.992188 152.167969 8.984375 151.683594 8.734375 C 151.300781 8.546875 151.121094 8.394531 150.984375 8.140625 C 150.796875 7.808594 150.789062 7.730469 150.789062 5.257812 C 150.789062 2.503906 150.796875 2.472656 151.273438 2.035156 C 151.496094 1.832031 151.792969 1.6875 152.191406 1.585938 C 152.285156 1.558594 152.898438 1.550781 153.550781 1.558594 C 154.589844 1.578125 154.792969 1.601562 155.132812 1.773438 Z M 155.132812 1.773438 "/>
<path style=" stroke:none;fill-rule:nonzero;fill:rgb(0%,0%,0%);fill-opacity:1;" d="M 152.964844 2.820312 C 152.226562 2.90625 152.226562 2.921875 152.253906 5.335938 C 152.285156 7.859375 152.21875 7.714844 153.375 7.714844 C 154.597656 7.714844 154.53125 7.859375 154.53125 5.242188 C 154.53125 3.367188 154.511719 3.078125 154.394531 2.972656 C 154.222656 2.828125 153.511719 2.753906 152.964844 2.820312 Z M 152.660156 6.109375 C 152.660156 7.355469 152.644531 7.507812 152.53125 7.414062 C 152.429688 7.328125 152.40625 7.046875 152.40625 5.90625 C 152.40625 4.660156 152.421875 4.507812 152.53125 4.601562 C 152.632812 4.6875 152.660156 4.96875 152.660156 6.109375 Z M 152.660156 6.109375 "/>
<path style=" stroke:none;fill-rule:nonzero;fill:rgb(0%,0%,0%);fill-opacity:1;" d="M 4.164062 0.316406 C 3.859375 0.519531 2.355469 1.808594 2.234375 1.960938 C 2.125 2.097656 0.910156 5.292969 0.585938 6.265625 C 0.40625 6.808594 0.390625 7.046875 0.355469 9.144531 C 0.332031 11.140625 0.339844 11.453125 0.460938 11.632812 C 0.59375 11.847656 0.613281 11.847656 1.953125 11.847656 L 3.304688 11.847656 L 4.285156 11.027344 C 5.320312 10.175781 5.441406 10.03125 5.441406 9.683594 C 5.441406 9.519531 5.484375 9.460938 5.609375 9.460938 C 5.773438 9.460938 5.78125 9.519531 5.78125 10.347656 C 5.78125 11.222656 5.863281 11.652344 6.058594 11.777344 C 6.121094 11.8125 6.765625 11.847656 7.503906 11.847656 L 8.855469 11.847656 L 9.800781 11.070312 C 10.328125 10.636719 10.804688 10.226562 10.863281 10.160156 C 11.023438 9.945312 11.007812 5.734375 10.835938 5.078125 C 10.71875 4.628906 10.234375 3.296875 9.433594 1.210938 C 9.011719 0.101562 9.1875 0.171875 6.585938 0.171875 C 4.648438 0.171875 4.34375 0.1875 4.164062 0.316406 Z M 8.917969 0.46875 C 9.0625 0.621094 10.320312 3.816406 10.675781 4.941406 C 10.871094 5.574219 10.957031 9.628906 10.777344 9.972656 C 10.667969 10.183594 10.652344 10.183594 9.351562 10.203125 C 8.609375 10.21875 7.972656 10.191406 7.90625 10.140625 C 7.804688 10.082031 7.769531 9.808594 7.734375 8.933594 L 7.691406 7.796875 L 5.3125 7.796875 L 5.285156 8.90625 C 5.269531 9.828125 5.246094 10.03125 5.125 10.125 C 4.945312 10.253906 2.703125 10.269531 2.457031 10.140625 C 2.304688 10.058594 2.296875 9.9375 2.296875 7.816406 C 2.296875 5.222656 2.285156 5.292969 3.109375 3.078125 C 4.027344 0.65625 4.105469 0.484375 4.335938 0.367188 C 4.496094 0.28125 5.066406 0.253906 6.648438 0.273438 C 8.628906 0.296875 8.761719 0.308594 8.917969 0.46875 Z M 8.917969 0.46875 "/>
<path style=" stroke:none;fill-rule:nonzero;fill:rgb(0%,0%,0%);fill-opacity:1;" d="M 5.234375 1.824219 C 4.964844 2.113281 4.011719 4.398438 3.832031 5.199219 C 3.714844 5.703125 3.714844 8.949219 3.824219 8.949219 C 3.875 8.949219 3.910156 8.503906 3.910156 7.796875 L 3.910156 6.648438 L 9.257812 6.648438 L 9.289062 7.78125 C 9.308594 8.394531 9.316406 8.046875 9.316406 6.988281 L 9.308594 5.070312 L 8.804688 3.878906 C 8.132812 2.285156 7.855469 1.730469 7.660156 1.621094 C 7.566406 1.578125 7.046875 1.535156 6.492188 1.535156 L 5.5 1.535156 Z M 7.71875 1.902344 C 7.949219 2.140625 8.976562 4.566406 9.136719 5.242188 C 9.207031 5.523438 9.265625 5.914062 9.265625 6.109375 L 9.265625 6.476562 L 3.910156 6.476562 L 3.910156 5.941406 C 3.910156 5.292969 3.988281 5.035156 4.625 3.390625 C 5.3125 1.621094 5.21875 1.703125 6.492188 1.703125 C 7.464844 1.703125 7.546875 1.722656 7.71875 1.902344 Z M 7.71875 1.902344 "/>
<path style=" stroke:none;fill-rule:nonzero;fill:rgb(0%,0%,0%);fill-opacity:1;" d="M 6.144531 3.085938 C 6.09375 3.144531 5.933594 3.613281 5.78125 4.132812 C 5.628906 4.644531 5.484375 5.121094 5.457031 5.171875 C 5.429688 5.257812 5.667969 5.285156 6.492188 5.285156 C 7.082031 5.285156 7.566406 5.257812 7.566406 5.234375 C 7.566406 5.199219 7.410156 4.679688 7.226562 4.082031 L 6.875 2.984375 L 6.554688 2.984375 C 6.375 2.984375 6.1875 3.035156 6.144531 3.085938 Z M 6.144531 3.085938 "/>
<path style=" stroke:none;fill-rule:nonzero;fill:rgb(0%,0%,0%);fill-opacity:1;" d="M 13.21875 0.894531 C 12.75 1.296875 12.28125 1.714844 12.179688 1.832031 L 11.984375 2.054688 L 11.984375 6.757812 C 11.984375 10.882812 12.003906 11.488281 12.121094 11.660156 C 12.25 11.839844 12.300781 11.847656 13.625 11.847656 L 15.003906 11.847656 L 15.980469 11.027344 C 16.515625 10.578125 16.984375 10.167969 17.015625 10.109375 C 17.050781 10.058594 17.085938 9.84375 17.085938 9.640625 C 17.085938 9.273438 17.085938 9.265625 17.253906 9.417969 C 17.40625 9.554688 17.425781 9.683594 17.425781 10.566406 C 17.425781 11.90625 17.347656 11.847656 19.066406 11.847656 L 20.390625 11.847656 L 21.054688 11.308594 C 21.421875 11.019531 21.894531 10.601562 22.117188 10.390625 L 22.523438 10.003906 L 22.523438 5.277344 C 22.523438 1.132812 22.507812 0.527344 22.390625 0.359375 C 22.261719 0.179688 22.210938 0.171875 20.875 0.171875 L 19.5 0.171875 L 18.625 0.902344 L 17.746094 1.644531 L 17.050781 0.902344 L 16.363281 0.171875 L 15.214844 0.171875 L 14.066406 0.179688 Z M 16.210938 0.347656 C 16.386719 0.410156 16.933594 0.964844 17.875 2.054688 L 19.285156 3.664062 L 19.3125 2.078125 C 19.335938 0.628906 19.355469 0.484375 19.5 0.375 C 19.703125 0.230469 21.929688 0.203125 22.195312 0.339844 C 22.347656 0.425781 22.355469 0.570312 22.355469 5.222656 C 22.355469 8.847656 22.328125 10.046875 22.253906 10.125 C 22.183594 10.191406 21.75 10.226562 20.859375 10.226562 C 19.761719 10.226562 19.550781 10.210938 19.457031 10.082031 C 19.378906 9.988281 19.320312 9.613281 19.296875 8.941406 L 19.253906 7.941406 L 18.148438 6.597656 L 17.042969 5.257812 L 17 7.601562 C 16.964844 9.417969 16.933594 9.980469 16.839844 10.082031 C 16.746094 10.210938 16.53125 10.226562 15.4375 10.226562 C 14.542969 10.226562 14.109375 10.191406 14.042969 10.125 C 13.964844 10.046875 13.941406 8.839844 13.941406 5.222656 L 13.941406 0.417969 L 14.136719 0.339844 C 14.398438 0.238281 15.902344 0.238281 16.210938 0.347656 Z M 16.210938 0.347656 "/>
<path style=" stroke:none;fill-rule:nonzero;fill:rgb(0%,0%,0%);fill-opacity:1;" d="M 15.402344 5.257812 L 15.425781 8.992188 L 15.445312 5.34375 C 15.460938 3.085938 15.503906 1.703125 15.554688 1.722656 C 15.597656 1.738281 16.796875 3.058594 18.222656 4.660156 L 20.816406 7.566406 L 20.851562 8.285156 C 20.859375 8.675781 20.875 7.304688 20.875 5.242188 L 20.867188 1.492188 L 20.824219 4.414062 L 20.78125 7.339844 L 18.207031 4.433594 C 16.796875 2.839844 15.582031 1.535156 15.511719 1.535156 C 15.402344 1.535156 15.386719 2.011719 15.402344 5.257812 Z M 15.402344 5.257812 "/>
<path style=" stroke:none;fill-rule:nonzero;fill:rgb(0%,0%,0%);fill-opacity:1;" d="M 24.90625 0.777344 C 24.503906 1.109375 24.039062 1.515625 23.867188 1.679688 L 23.546875 1.96875 L 23.546875 3.109375 C 23.546875 4.585938 23.554688 4.601562 24.648438 4.601562 L 25.414062 4.601562 L 25.414062 7.644531 L 24.632812 8.308594 C 23.460938 9.296875 23.546875 9.128906 23.546875 10.441406 C 23.546875 11.421875 23.5625 11.582031 23.699219 11.703125 C 23.84375 11.828125 24.199219 11.847656 27.089844 11.847656 L 30.328125 11.847656 L 31.355469 10.984375 C 32.53125 10.003906 32.503906 10.066406 32.453125 8.660156 C 32.417969 7.507812 32.394531 7.484375 31.363281 7.433594 L 30.601562 7.398438 L 30.601562 4.347656 L 31.492188 3.605469 C 32.519531 2.746094 32.503906 2.796875 32.453125 1.363281 C 32.425781 0.535156 32.402344 0.390625 32.265625 0.289062 C 32.128906 0.195312 31.519531 0.171875 28.859375 0.171875 L 25.617188 0.171875 Z M 32.113281 0.390625 C 32.292969 0.511719 32.300781 0.578125 32.300781 1.621094 C 32.300781 2.964844 32.292969 2.984375 31.21875 2.984375 L 30.515625 2.984375 L 30.515625 7.585938 L 31.273438 7.585938 C 32.308594 7.585938 32.300781 7.578125 32.300781 8.90625 C 32.300781 9.75 32.273438 9.988281 32.164062 10.089844 C 32.054688 10.210938 31.628906 10.226562 28.859375 10.226562 L 25.679688 10.226562 L 25.550781 10.039062 C 25.449219 9.894531 25.414062 9.621094 25.414062 8.90625 C 25.414062 7.609375 25.433594 7.585938 26.484375 7.585938 L 27.285156 7.585938 L 27.285156 3 L 26.476562 2.964844 C 25.96875 2.949219 25.636719 2.898438 25.566406 2.828125 C 25.492188 2.753906 25.457031 2.402344 25.457031 1.609375 C 25.457031 0.605469 25.472656 0.484375 25.617188 0.375 C 25.882812 0.1875 31.839844 0.195312 32.113281 0.390625 Z M 32.113281 0.390625 "/>
<path style=" stroke:none;fill-rule:nonzero;fill:rgb(0%,0%,0%);fill-opacity:1;" d="M 26.691406 1.621094 C 26.691406 1.671875 27.097656 1.703125 27.753906 1.703125 L 28.816406 1.703125 L 28.816406 8.855469 L 27.734375 8.890625 C 27.132812 8.898438 27.660156 8.914062 28.898438 8.914062 C 30.140625 8.914062 30.667969 8.898438 30.074219 8.890625 L 28.984375 8.855469 L 28.984375 1.703125 L 29.996094 1.703125 C 30.582031 1.703125 31.035156 1.671875 31.066406 1.621094 C 31.101562 1.558594 30.363281 1.535156 28.910156 1.535156 C 27.488281 1.535156 26.691406 1.566406 26.691406 1.621094 Z M 26.691406 1.621094 "/>
<path style=" stroke:none;fill-rule:nonzero;fill:rgb(0%,0%,0%);fill-opacity:1;" d="M 34.578125 0.988281 C 34.050781 1.441406 33.59375 1.859375 33.558594 1.910156 C 33.523438 1.960938 33.488281 4.152344 33.488281 6.785156 C 33.488281 11.308594 33.5 11.574219 33.644531 11.703125 C 33.777344 11.820312 34.007812 11.847656 35.121094 11.847656 L 36.449219 11.847656 L 37.46875 10.996094 C 38.027344 10.527344 38.503906 10.058594 38.539062 9.953125 C 38.566406 9.84375 38.589844 9.460938 38.589844 9.09375 L 38.589844 8.4375 L 38.828125 8.4375 C 38.972656 8.4375 39.226562 8.328125 39.441406 8.164062 C 39.644531 8.011719 39.875 7.832031 39.957031 7.765625 C 40.113281 7.652344 40.121094 7.714844 40.121094 9.511719 C 40.121094 10.839844 40.152344 11.4375 40.230469 11.589844 C 40.339844 11.804688 40.339844 11.804688 41.753906 11.828125 L 43.164062 11.847656 L 43.792969 11.34375 C 44.140625 11.0625 44.625 10.652344 44.863281 10.441406 L 45.304688 10.039062 L 45.304688 5.25 C 45.304688 0.707031 45.296875 0.441406 45.152344 0.316406 C 45.015625 0.195312 44.777344 0.171875 43.554688 0.171875 L 42.109375 0.171875 L 41.089844 1.023438 C 40.527344 1.492188 40.007812 1.96875 39.949219 2.089844 C 39.890625 2.207031 39.8125 2.300781 39.789062 2.300781 C 39.761719 2.300781 39.523438 1.890625 39.269531 1.398438 C 39.015625 0.902344 38.710938 0.425781 38.597656 0.332031 C 38.421875 0.1875 38.25 0.171875 36.976562 0.171875 L 35.546875 0.171875 Z M 38.582031 0.503906 C 38.667969 0.613281 39.03125 1.253906 39.40625 1.925781 C 40.289062 3.554688 40.257812 3.554688 41.191406 1.832031 C 41.574219 1.132812 41.972656 0.496094 42.074219 0.410156 C 42.238281 0.273438 42.441406 0.253906 43.535156 0.253906 C 44.25 0.253906 44.878906 0.296875 44.972656 0.339844 C 45.125 0.425781 45.136719 0.570312 45.136719 5.222656 C 45.136719 8.847656 45.109375 10.046875 45.03125 10.125 C 44.886719 10.269531 42.414062 10.269531 42.21875 10.117188 C 42.09375 10.023438 42.074219 9.742188 42.058594 7.457031 L 42.03125 4.910156 L 41.617188 5.703125 C 41.082031 6.699219 40.9375 6.816406 40.246094 6.816406 C 39.558594 6.816406 39.390625 6.683594 38.871094 5.691406 L 38.460938 4.917969 L 38.421875 7.492188 C 38.386719 9.65625 38.359375 10.074219 38.25 10.140625 C 38.183594 10.183594 37.5625 10.226562 36.871094 10.226562 C 35.675781 10.226562 35.613281 10.21875 35.496094 10.039062 C 35.378906 9.871094 35.359375 9.273438 35.359375 5.222656 C 35.359375 0.65625 35.359375 0.597656 35.539062 0.417969 C 35.699219 0.253906 35.792969 0.246094 37.070312 0.273438 C 38.386719 0.296875 38.4375 0.308594 38.582031 0.503906 Z M 38.582031 0.503906 "/>
<path style=" stroke:none;fill-rule:nonzero;fill:rgb(0%,0%,0%);fill-opacity:1;" d="M 36.890625 1.746094 C 36.769531 2.054688 36.769531 8.949219 36.890625 8.949219 C 36.941406 8.949219 36.984375 7.652344 36.992188 5.34375 L 37.015625 1.746094 L 37.332031 1.746094 C 37.65625 1.746094 37.65625 1.746094 38.734375 3.367188 L 39.824219 4.984375 L 40.164062 5.011719 C 40.605469 5.046875 40.664062 4.976562 41.863281 3.171875 C 42.78125 1.789062 42.816406 1.746094 43.121094 1.722656 C 43.289062 1.703125 43.445312 1.703125 43.453125 1.722656 C 43.460938 1.738281 43.496094 3.375 43.519531 5.371094 L 43.570312 8.992188 L 43.589844 5.371094 C 43.597656 2.632812 43.578125 1.714844 43.503906 1.636719 C 43.367188 1.5 42.90625 1.507812 42.738281 1.636719 C 42.671875 1.695312 42.167969 2.429688 41.625 3.265625 C 41.054688 4.125 40.554688 4.816406 40.441406 4.867188 C 40.070312 5.035156 39.882812 4.847656 38.777344 3.195312 L 37.699219 1.578125 L 37.332031 1.550781 C 37.007812 1.527344 36.964844 1.550781 36.890625 1.746094 Z M 36.890625 1.746094 "/>
<path style=" stroke:none;fill-rule:nonzero;fill:rgb(0%,0%,0%);fill-opacity:1;" d="M 50.140625 0.324219 C 50.023438 0.402344 49.539062 0.792969 49.0625 1.191406 L 48.195312 1.910156 L 47.863281 2.769531 C 46.265625 6.859375 46.382812 6.367188 46.351562 9.101562 C 46.316406 11.140625 46.324219 11.453125 46.445312 11.632812 C 46.578125 11.847656 46.597656 11.847656 47.929688 11.847656 L 49.28125 11.847656 L 50.167969 11.113281 C 51.261719 10.210938 51.425781 10.023438 51.425781 9.707031 C 51.425781 9.519531 51.46875 9.460938 51.585938 9.460938 C 51.738281 9.460938 51.757812 9.546875 51.78125 10.535156 C 51.808594 11.480469 51.824219 11.617188 51.96875 11.726562 C 52.097656 11.820312 52.453125 11.847656 53.472656 11.847656 L 54.816406 11.847656 L 55.445312 11.34375 C 55.785156 11.0625 56.269531 10.652344 56.507812 10.441406 L 56.949219 10.039062 L 56.949219 7.847656 C 56.949219 5.964844 56.925781 5.566406 56.789062 5.019531 C 56.542969 4.082031 55.191406 0.589844 54.976562 0.367188 C 54.800781 0.171875 54.773438 0.171875 52.582031 0.171875 C 50.609375 0.171875 50.335938 0.1875 50.140625 0.324219 Z M 54.894531 0.46875 C 55.070312 0.65625 56.429688 4.175781 56.644531 5.003906 C 56.8125 5.667969 56.847656 9.953125 56.679688 10.125 C 56.550781 10.253906 54.085938 10.269531 53.890625 10.140625 C 53.789062 10.082031 53.753906 9.808594 53.71875 8.933594 L 53.675781 7.796875 L 51.296875 7.796875 L 51.253906 8.933594 C 51.222656 9.808594 51.1875 10.082031 51.085938 10.140625 C 50.890625 10.269531 48.507812 10.253906 48.382812 10.125 C 48.304688 10.046875 48.28125 9.410156 48.28125 7.753906 C 48.28125 5.199219 48.273438 5.265625 49.046875 3.195312 C 49.9375 0.828125 50.097656 0.476562 50.320312 0.367188 C 50.480469 0.28125 51.050781 0.253906 52.632812 0.273438 C 54.613281 0.296875 54.75 0.308594 54.894531 0.46875 Z M 54.894531 0.46875 "/>
<path style=" stroke:none;fill-rule:nonzero;fill:rgb(0%,0%,0%);fill-opacity:1;" d="M 51.382812 1.636719 C 51.289062 1.6875 51.160156 1.796875 51.109375 1.867188 C 50.984375 2.027344 49.945312 4.671875 49.820312 5.15625 C 49.765625 5.351562 49.734375 6.222656 49.742188 7.246094 C 49.757812 8.660156 49.765625 8.769531 49.785156 7.816406 L 49.820312 6.648438 L 55.242188 6.648438 L 55.277344 7.78125 C 55.292969 8.394531 55.300781 8.046875 55.300781 6.988281 L 55.292969 5.070312 L 54.613281 3.496094 C 54.246094 2.625 53.855469 1.832031 53.746094 1.730469 C 53.574219 1.550781 53.480469 1.535156 52.554688 1.535156 C 51.960938 1.535156 51.484375 1.578125 51.382812 1.636719 Z M 53.746094 1.976562 C 53.855469 2.128906 54.203125 2.855469 54.511719 3.589844 C 55.046875 4.867188 55.25 5.589844 55.25 6.195312 L 55.25 6.476562 L 49.792969 6.476562 L 49.84375 5.898438 C 49.921875 5.183594 49.964844 5.027344 50.59375 3.433594 C 51.296875 1.621094 51.203125 1.703125 52.488281 1.703125 L 53.542969 1.703125 Z M 53.746094 1.976562 "/>
<path style=" stroke:none;fill-rule:nonzero;fill:rgb(0%,0%,0%);fill-opacity:1;" d="M 52.128906 3.085938 C 52.0625 3.179688 51.765625 4.082031 51.460938 5.128906 C 51.417969 5.277344 51.5 5.285156 52.488281 5.285156 C 53.472656 5.285156 53.558594 5.277344 53.515625 5.128906 C 53.261719 4.246094 52.914062 3.171875 52.84375 3.085938 C 52.800781 3.035156 52.640625 2.984375 52.488281 2.984375 C 52.335938 2.984375 52.171875 3.035156 52.128906 3.085938 Z M 52.128906 3.085938 "/>
<path style=" stroke:none;fill-rule:nonzero;fill:rgb(0%,0%,0%);fill-opacity:1;" d="M 59.066406 1.015625 C 58.523438 1.472656 58.054688 1.925781 58.019531 2.003906 C 57.996094 2.078125 57.96875 4.246094 57.96875 6.808594 C 57.96875 10.882812 57.988281 11.488281 58.105469 11.660156 L 58.234375 11.847656 L 65.902344 11.847656 L 66.691406 11.199219 C 67.132812 10.839844 67.601562 10.449219 67.746094 10.3125 L 68 10.074219 L 68 7.558594 C 68 5.386719 67.984375 5.019531 67.863281 4.910156 C 67.753906 4.796875 67.5 4.773438 66.402344 4.773438 L 65.066406 4.773438 L 64.117188 5.589844 L 63.15625 6.402344 L 63.15625 3.476562 C 63.15625 0.964844 63.136719 0.519531 63.019531 0.359375 C 62.890625 0.179688 62.839844 0.171875 61.472656 0.171875 L 60.050781 0.171875 Z M 62.824219 0.339844 C 62.976562 0.425781 62.984375 0.5625 62.984375 4.003906 L 62.984375 7.585938 L 64.941406 7.585938 L 64.941406 6.308594 C 64.941406 5.140625 64.957031 5.027344 65.101562 4.941406 C 65.195312 4.902344 65.789062 4.859375 66.417969 4.859375 C 68.042969 4.859375 67.914062 4.621094 67.914062 7.558594 C 67.914062 9.628906 67.898438 9.9375 67.769531 10.074219 C 67.644531 10.21875 67.40625 10.226562 63.878906 10.226562 C 61.074219 10.226562 60.101562 10.203125 60.027344 10.125 C 59.949219 10.046875 59.925781 8.847656 59.925781 5.222656 C 59.925781 0.75 59.933594 0.425781 60.078125 0.347656 C 60.273438 0.230469 62.609375 0.230469 62.824219 0.339844 Z M 62.824219 0.339844 "/>
<path style=" stroke:none;fill-rule:nonzero;fill:rgb(0%,0%,0%);fill-opacity:1;" d="M 61.371094 5.242188 L 61.371094 8.949219 L 66.46875 8.949219 L 66.46875 7.542969 C 66.46875 6.664062 66.4375 6.136719 66.386719 6.136719 C 66.335938 6.136719 66.300781 6.648438 66.300781 7.5 L 66.300781 8.863281 L 61.539062 8.863281 L 61.539062 5.199219 C 61.539062 2.8125 61.515625 1.535156 61.453125 1.535156 C 61.394531 1.535156 61.371094 2.828125 61.371094 5.242188 Z M 61.371094 5.242188 "/>
<path style=" stroke:none;fill-rule:nonzero;fill:rgb(0%,0%,0%);fill-opacity:1;" d="M 76.984375 0.308594 C 76.3125 0.46875 76.101562 0.597656 75.15625 1.378906 C 73.101562 3.09375 73.160156 2.957031 73.117188 6.214844 C 73.082031 8.734375 73.140625 9.441406 73.441406 10.117188 C 73.6875 10.671875 74.296875 11.277344 74.910156 11.558594 L 75.4375 11.804688 L 77.859375 11.828125 L 80.28125 11.855469 L 81.320312 10.996094 C 82.507812 10.015625 82.484375 10.074219 82.433594 8.660156 C 82.398438 7.390625 82.519531 7.464844 80.324219 7.433594 C 78.609375 7.40625 78.539062 7.398438 78.414062 7.21875 C 78.308594 7.074219 78.285156 6.765625 78.285156 5.820312 L 78.285156 4.601562 L 80.230469 4.601562 L 80.734375 4.191406 C 82.570312 2.710938 82.484375 2.839844 82.433594 1.363281 C 82.40625 0.546875 82.382812 0.390625 82.238281 0.289062 C 82.007812 0.121094 77.699219 0.128906 76.984375 0.308594 Z M 82.09375 0.390625 C 82.273438 0.511719 82.28125 0.578125 82.28125 1.621094 C 82.28125 3.066406 82.414062 2.984375 80.222656 2.984375 C 78.652344 2.984375 78.53125 2.992188 78.371094 3.152344 C 78.207031 3.316406 78.199219 3.433594 78.199219 5.257812 C 78.199219 6.332031 78.234375 7.246094 78.269531 7.296875 C 78.429688 7.542969 78.742188 7.585938 80.359375 7.585938 C 81.753906 7.585938 82.035156 7.609375 82.144531 7.722656 C 82.347656 7.917969 82.339844 9.894531 82.136719 10.097656 C 82.015625 10.226562 81.746094 10.234375 79.609375 10.210938 C 77.402344 10.183594 77.1875 10.167969 76.710938 9.988281 C 76.050781 9.742188 75.667969 9.417969 75.351562 8.855469 L 75.097656 8.394531 L 75.097656 5.285156 C 75.097656 2.308594 75.105469 2.15625 75.277344 1.789062 C 75.640625 1.003906 76.390625 0.503906 77.433594 0.359375 C 77.742188 0.316406 78.871094 0.273438 79.941406 0.265625 C 81.589844 0.253906 81.929688 0.273438 82.09375 0.390625 Z M 82.09375 0.390625 "/>
<path style=" stroke:none;fill-rule:nonzero;fill:rgb(0%,0%,0%);fill-opacity:1;" d="M 77.578125 1.652344 C 77.136719 1.773438 76.890625 1.960938 76.679688 2.34375 C 76.558594 2.566406 76.542969 2.949219 76.542969 5.242188 C 76.542969 7.746094 76.550781 7.902344 76.722656 8.214844 C 77.042969 8.839844 77.300781 8.90625 79.304688 8.914062 L 81.046875 8.921875 L 79.390625 8.871094 C 77.570312 8.8125 77.246094 8.726562 76.890625 8.242188 C 76.722656 8.011719 76.710938 7.867188 76.6875 5.402344 C 76.652344 1.644531 76.566406 1.765625 79.289062 1.722656 C 80.265625 1.703125 81.003906 1.660156 81.003906 1.609375 C 81.003906 1.492188 78.054688 1.527344 77.578125 1.652344 Z M 77.578125 1.652344 "/>
<path style=" stroke:none;fill-rule:nonzero;fill:rgb(0%,0%,0%);fill-opacity:1;" d="M 95.878906 0.988281 C 95.34375 1.441406 94.878906 1.859375 94.84375 1.910156 C 94.808594 1.960938 94.773438 4.152344 94.773438 6.785156 C 94.773438 11.308594 94.785156 11.574219 94.929688 11.703125 C 95.074219 11.828125 95.472656 11.847656 98.890625 11.847656 L 102.695312 11.847656 L 103.640625 11.070312 C 104.167969 10.636719 104.644531 10.226562 104.703125 10.160156 C 104.78125 10.058594 104.804688 9.402344 104.804688 7.542969 C 104.804688 5.242188 104.796875 5.046875 104.652344 4.917969 C 104.515625 4.796875 104.285156 4.773438 103.171875 4.773438 L 101.855469 4.773438 L 100.953125 5.539062 C 100.460938 5.957031 100.035156 6.308594 100.011719 6.308594 C 99.984375 6.308594 99.960938 5.011719 99.960938 3.425781 C 99.960938 0.964844 99.941406 0.519531 99.824219 0.359375 C 99.695312 0.179688 99.644531 0.171875 98.277344 0.171875 L 96.847656 0.171875 Z M 99.703125 0.425781 C 99.757812 0.503906 99.789062 2.011719 99.789062 4.066406 L 99.789062 7.585938 L 101.652344 7.585938 L 101.675781 6.339844 C 101.703125 5.222656 101.71875 5.089844 101.863281 4.976562 C 102.101562 4.808594 104.277344 4.808594 104.515625 4.976562 C 104.667969 5.097656 104.675781 5.222656 104.675781 7.527344 C 104.675781 9.453125 104.652344 9.972656 104.558594 10.082031 C 104.457031 10.210938 104.074219 10.226562 100.675781 10.226562 L 96.898438 10.226562 L 96.773438 10.023438 C 96.652344 9.851562 96.644531 9.253906 96.660156 5.164062 C 96.6875 0.613281 96.6875 0.496094 96.859375 0.375 C 97.105469 0.1875 99.585938 0.238281 99.703125 0.425781 Z M 99.703125 0.425781 "/>
<path style=" stroke:none;fill-rule:nonzero;fill:rgb(0%,0%,0%);fill-opacity:1;" d="M 98.175781 5.242188 L 98.175781 8.949219 L 103.273438 8.949219 L 103.273438 7.542969 C 103.273438 6.664062 103.242188 6.136719 103.191406 6.136719 C 103.140625 6.136719 103.105469 6.648438 103.105469 7.5 L 103.105469 8.863281 L 98.34375 8.863281 L 98.34375 5.199219 C 98.34375 2.8125 98.320312 1.535156 98.261719 1.535156 C 98.199219 1.535156 98.175781 2.828125 98.175781 5.242188 Z M 98.175781 5.242188 "/>
<path style=" stroke:none;fill-rule:nonzero;fill:rgb(0%,0%,0%);fill-opacity:1;" d="M 106.828125 0.988281 C 106.300781 1.441406 105.84375 1.859375 105.808594 1.910156 C 105.773438 1.960938 105.738281 4.152344 105.738281 6.785156 C 105.738281 11.308594 105.75 11.574219 105.894531 11.703125 C 106.039062 11.828125 106.4375 11.847656 109.84375 11.847656 L 113.636719 11.847656 L 114.265625 11.34375 C 114.605469 11.0625 115.089844 10.652344 115.328125 10.441406 L 115.769531 10.039062 L 115.769531 7.59375 C 115.769531 5.523438 115.753906 5.121094 115.632812 4.960938 C 115.507812 4.78125 115.457031 4.773438 114.15625 4.773438 L 112.804688 4.773438 L 111.910156 5.539062 C 111.417969 5.964844 111 6.308594 110.976562 6.308594 C 110.949219 6.308594 110.917969 4.976562 110.90625 3.359375 C 110.882812 0.554688 110.875 0.410156 110.722656 0.289062 C 110.59375 0.195312 110.226562 0.171875 109.175781 0.171875 L 107.796875 0.171875 Z M 110.566406 0.390625 L 110.753906 0.519531 L 110.753906 7.585938 L 112.625 7.585938 L 112.625 6.390625 C 112.625 4.796875 112.574219 4.859375 114.121094 4.859375 C 114.75 4.859375 115.34375 4.902344 115.4375 4.941406 C 115.589844 5.027344 115.601562 5.148438 115.601562 7.527344 C 115.601562 9.359375 115.574219 10.046875 115.496094 10.125 C 115.421875 10.203125 114.445312 10.226562 111.640625 10.226562 L 107.875 10.226562 L 107.746094 10.039062 C 107.628906 9.871094 107.609375 9.273438 107.609375 5.222656 C 107.609375 0.707031 107.609375 0.597656 107.78125 0.425781 C 107.933594 0.273438 108.058594 0.253906 109.164062 0.253906 C 110.125 0.253906 110.414062 0.28125 110.566406 0.390625 Z M 110.566406 0.390625 "/>
<path style=" stroke:none;fill-rule:nonzero;fill:rgb(0%,0%,0%);fill-opacity:1;" d="M 109.140625 5.242188 L 109.140625 8.949219 L 114.238281 8.949219 L 114.238281 7.542969 C 114.238281 6.664062 114.207031 6.136719 114.15625 6.136719 C 114.105469 6.136719 114.070312 6.648438 114.070312 7.5 L 114.070312 8.863281 L 109.308594 8.863281 L 109.308594 5.199219 C 109.308594 2.8125 109.285156 1.535156 109.226562 1.535156 C 109.164062 1.535156 109.140625 2.828125 109.140625 5.242188 Z M 109.140625 5.242188 "/>
<path style=" stroke:none;fill-rule:nonzero;fill:rgb(0%,0%,0%);fill-opacity:1;" d="M 117.878906 0.902344 C 117.394531 1.3125 116.933594 1.714844 116.859375 1.808594 C 116.714844 1.96875 116.703125 2.328125 116.703125 6.777344 C 116.703125 11.027344 116.722656 11.589844 116.839844 11.710938 C 116.953125 11.828125 117.402344 11.847656 120.46875 11.847656 L 123.972656 11.847656 L 125.007812 10.996094 C 125.996094 10.175781 126.046875 10.125 126.105469 9.757812 C 126.191406 9.179688 126.105469 7.773438 125.988281 7.652344 C 125.910156 7.578125 125.484375 7.527344 124.738281 7.5 L 123.589844 7.457031 L 124.269531 6.878906 L 124.949219 6.308594 L 124.949219 5.234375 C 124.949219 4.644531 124.914062 4.089844 124.863281 4.003906 C 124.796875 3.871094 124.875 3.765625 125.417969 3.324219 C 126.148438 2.710938 126.183594 2.609375 126.121094 1.226562 C 126.097656 0.546875 126.0625 0.382812 125.925781 0.289062 C 125.800781 0.195312 125.113281 0.171875 122.265625 0.171875 L 118.753906 0.171875 Z M 125.78125 0.390625 C 125.960938 0.511719 125.96875 0.578125 125.96875 1.578125 C 125.96875 2.421875 125.945312 2.660156 125.835938 2.761719 C 125.722656 2.878906 125.402344 2.898438 123.667969 2.898438 L 121.636719 2.898438 L 121.636719 3.910156 L 123.132812 3.9375 C 124.492188 3.964844 124.636719 3.980469 124.746094 4.125 C 124.90625 4.347656 124.914062 6.035156 124.761719 6.246094 C 124.667969 6.367188 124.441406 6.390625 123.164062 6.410156 L 121.675781 6.433594 L 121.652344 7.003906 L 121.625 7.585938 L 123.605469 7.585938 C 125.265625 7.585938 125.621094 7.609375 125.78125 7.722656 C 125.960938 7.839844 125.96875 7.910156 125.96875 8.90625 C 125.96875 9.75 125.945312 9.988281 125.835938 10.089844 C 125.722656 10.210938 125.28125 10.226562 122.273438 10.226562 C 119.261719 10.226562 118.820312 10.210938 118.710938 10.089844 C 118.59375 9.972656 118.574219 9.417969 118.574219 5.242188 L 118.574219 0.519531 L 118.761719 0.390625 C 118.921875 0.273438 119.40625 0.253906 122.273438 0.253906 C 125.136719 0.253906 125.621094 0.273438 125.78125 0.390625 Z M 125.78125 0.390625 "/>
<path style=" stroke:none;fill-rule:nonzero;fill:rgb(0%,0%,0%);fill-opacity:1;" d="M 120.105469 5.242188 L 120.105469 8.949219 L 122.425781 8.933594 L 124.738281 8.914062 L 122.484375 8.863281 L 120.234375 8.820312 L 120.207031 7.046875 L 120.191406 5.285156 L 121.890625 5.285156 C 122.96875 5.285156 123.589844 5.25 123.589844 5.199219 C 123.589844 5.148438 122.96875 5.113281 121.890625 5.113281 L 120.191406 5.113281 L 120.191406 1.703125 L 122.441406 1.703125 C 123.886719 1.703125 124.695312 1.671875 124.695312 1.621094 C 124.695312 1.566406 123.871094 1.535156 122.398438 1.535156 L 120.105469 1.535156 Z M 120.105469 5.242188 "/>
<path style=" stroke:none;fill-rule:nonzero;fill:rgb(0%,0%,0%);fill-opacity:1;" d="M 130.703125 0.308594 C 130.03125 0.46875 129.820312 0.597656 128.878906 1.378906 C 126.820312 3.09375 126.878906 2.957031 126.835938 6.214844 C 126.804688 8.734375 126.863281 9.441406 127.160156 10.117188 C 127.40625 10.671875 128.019531 11.277344 128.628906 11.558594 L 129.15625 11.804688 L 131.578125 11.828125 L 134.003906 11.855469 L 135.039062 10.996094 C 136.230469 10.015625 136.203125 10.074219 136.152344 8.660156 C 136.117188 7.390625 136.238281 7.464844 134.046875 7.433594 C 132.328125 7.40625 132.261719 7.398438 132.132812 7.21875 C 132.03125 7.074219 132.003906 6.765625 132.003906 5.820312 L 132.003906 4.601562 L 133.953125 4.601562 L 134.453125 4.191406 C 136.289062 2.710938 136.203125 2.839844 136.152344 1.363281 C 136.128906 0.546875 136.101562 0.390625 135.957031 0.289062 C 135.726562 0.121094 131.417969 0.128906 130.703125 0.308594 Z M 135.820312 0.402344 C 136 0.546875 136.007812 0.613281 135.984375 1.660156 C 135.957031 2.746094 135.949219 2.769531 135.746094 2.871094 C 135.59375 2.949219 135.039062 2.984375 133.902344 2.984375 C 132.371094 2.984375 132.25 2.992188 132.089844 3.152344 C 131.929688 3.316406 131.921875 3.433594 131.921875 5.257812 C 131.921875 6.332031 131.953125 7.246094 131.988281 7.296875 C 132.148438 7.542969 132.464844 7.585938 134.078125 7.585938 C 135.472656 7.585938 135.753906 7.609375 135.863281 7.722656 C 136.066406 7.917969 136.058594 9.894531 135.855469 10.097656 C 135.738281 10.226562 135.464844 10.234375 133.332031 10.210938 C 131.121094 10.183594 130.910156 10.167969 130.433594 9.988281 C 129.769531 9.742188 129.386719 9.417969 129.074219 8.855469 L 128.816406 8.394531 L 128.816406 5.285156 C 128.816406 2.308594 128.824219 2.15625 128.996094 1.789062 C 129.363281 1.003906 130.109375 0.503906 131.15625 0.359375 C 131.460938 0.316406 132.589844 0.273438 133.671875 0.265625 C 135.429688 0.253906 135.660156 0.273438 135.820312 0.402344 Z M 135.820312 0.402344 "/>
<path style=" stroke:none;fill-rule:nonzero;fill:rgb(0%,0%,0%);fill-opacity:1;" d="M 131.300781 1.652344 C 130.859375 1.773438 130.609375 1.960938 130.398438 2.34375 C 130.28125 2.566406 130.261719 2.949219 130.261719 5.242188 C 130.261719 7.746094 130.269531 7.902344 130.441406 8.214844 C 130.765625 8.839844 131.019531 8.90625 133.023438 8.914062 L 134.765625 8.921875 L 133.109375 8.871094 C 131.289062 8.8125 130.96875 8.726562 130.609375 8.242188 C 130.441406 8.011719 130.433594 7.867188 130.40625 5.402344 C 130.371094 1.644531 130.289062 1.765625 133.007812 1.722656 C 133.984375 1.703125 134.726562 1.660156 134.726562 1.609375 C 134.726562 1.492188 131.777344 1.527344 131.300781 1.652344 Z M 131.300781 1.652344 "/>
<path style=" stroke:none;fill-rule:nonzero;fill:rgb(0%,0%,0%);fill-opacity:1;" d="M 137.539062 1.023438 C 136.367188 2.011719 136.390625 1.953125 136.441406 3.367188 C 136.476562 4.59375 136.484375 4.601562 137.921875 4.601562 L 138.976562 4.601562 L 138.976562 8.035156 C 138.976562 11.003906 138.992188 11.496094 139.109375 11.660156 C 139.238281 11.839844 139.289062 11.847656 140.675781 11.847656 L 142.113281 11.847656 L 142.742188 11.34375 C 143.082031 11.0625 143.566406 10.652344 143.804688 10.441406 L 144.246094 10.039062 L 144.246094 4.628906 L 144.484375 4.578125 C 144.773438 4.515625 146.640625 2.964844 146.734375 2.703125 C 146.777344 2.597656 146.796875 2.046875 146.777344 1.464844 C 146.753906 0.535156 146.734375 0.402344 146.589844 0.289062 C 146.445312 0.1875 145.75 0.171875 142.484375 0.171875 L 138.550781 0.171875 Z M 146.4375 0.390625 C 146.617188 0.511719 146.625 0.578125 146.625 1.621094 C 146.625 3.027344 146.667969 2.984375 145.164062 2.984375 L 144.074219 2.984375 L 144.074219 6.503906 C 144.074219 9.128906 144.050781 10.046875 143.972656 10.125 C 143.828125 10.269531 141.175781 10.269531 141.03125 10.125 C 140.957031 10.046875 140.929688 9.128906 140.929688 6.503906 L 140.929688 2.984375 L 139.84375 2.984375 C 138.335938 2.984375 138.378906 3.027344 138.378906 1.636719 C 138.378906 0.535156 138.40625 0.402344 138.636719 0.316406 C 138.703125 0.289062 140.445312 0.265625 142.503906 0.265625 C 145.757812 0.253906 146.269531 0.273438 146.4375 0.390625 Z M 146.4375 0.390625 "/>
<path style=" stroke:none;fill-rule:nonzero;fill:rgb(0%,0%,0%);fill-opacity:1;" d="M 139.613281 1.621094 C 139.648438 1.671875 140.222656 1.703125 141.058594 1.703125 L 142.460938 1.703125 L 142.484375 5.34375 L 142.503906 8.992188 L 142.527344 5.34375 L 142.546875 1.703125 L 143.9375 1.703125 C 144.78125 1.703125 145.359375 1.671875 145.390625 1.621094 C 145.425781 1.558594 144.441406 1.535156 142.503906 1.535156 C 140.566406 1.535156 139.578125 1.558594 139.613281 1.621094 Z M 139.613281 1.621094 "/>
<path style=" stroke:none;fill-rule:nonzero;fill:rgb(0%,0%,0%);fill-opacity:1;" d="M 159.976562 1.023438 C 159.152344 1.714844 158.949219 1.933594 158.90625 2.15625 C 158.882812 2.308594 158.863281 4.492188 158.882812 7.015625 C 158.90625 11.445312 158.914062 11.609375 159.070312 11.726562 C 159.195312 11.820312 159.554688 11.847656 160.589844 11.847656 L 161.949219 11.847656 L 162.679688 11.234375 C 164.09375 10.058594 164.050781 10.117188 164.050781 9.359375 C 164.050781 8.871094 164.074219 8.691406 164.160156 8.691406 C 164.433594 8.691406 164.476562 8.898438 164.476562 10.226562 C 164.476562 11.410156 164.492188 11.582031 164.628906 11.703125 C 164.765625 11.820312 165.003906 11.847656 166.15625 11.847656 L 167.527344 11.847656 L 168.503906 11.027344 C 169.046875 10.585938 169.523438 10.140625 169.574219 10.058594 C 169.71875 9.785156 169.683594 6.589844 169.523438 6.058594 C 169.378906 5.558594 168.9375 5.019531 168.554688 4.859375 C 168.410156 4.796875 168.300781 4.746094 168.300781 4.738281 C 168.300781 4.738281 168.394531 4.542969 168.511719 4.3125 C 168.699219 3.945312 168.726562 3.785156 168.726562 3.007812 C 168.726562 1.5 168.453125 0.910156 167.578125 0.46875 L 167.066406 0.214844 L 164.03125 0.1875 L 161 0.160156 Z M 167.167969 0.425781 C 167.375 0.484375 167.703125 0.683594 167.910156 0.859375 C 168.4375 1.320312 168.597656 1.789062 168.597656 2.8125 C 168.597656 3.851562 168.519531 4.183594 168.214844 4.515625 C 168.070312 4.671875 167.960938 4.796875 167.960938 4.816406 C 167.960938 4.824219 168.0625 4.859375 168.199219 4.882812 C 168.613281 4.96875 169.015625 5.308594 169.261719 5.785156 L 169.488281 6.253906 L 169.488281 8.148438 C 169.488281 9.945312 169.480469 10.058594 169.328125 10.140625 C 169.234375 10.183594 168.605469 10.226562 167.882812 10.226562 C 166.261719 10.226562 166.34375 10.320312 166.34375 8.558594 C 166.34375 7.457031 166.328125 7.246094 166.199219 7.152344 C 166.105469 7.066406 165.742188 7.023438 165.019531 7.003906 L 163.972656 6.972656 L 163.949219 8.464844 C 163.929688 9.5625 163.886719 9.980469 163.804688 10.082031 C 163.632812 10.285156 161.160156 10.296875 160.957031 10.089844 C 160.835938 9.972656 160.820312 9.417969 160.820312 5.242188 L 160.820312 0.519531 L 161.015625 0.382812 C 161.175781 0.265625 161.527344 0.246094 164.007812 0.28125 C 165.929688 0.308594 166.921875 0.347656 167.167969 0.425781 Z M 167.167969 0.425781 "/>
<path style=" stroke:none;fill-rule:nonzero;fill:rgb(0%,0%,0%);fill-opacity:1;" d="M 162.265625 5.242188 C 162.265625 7.652344 162.289062 8.949219 162.351562 8.949219 C 162.402344 8.949219 162.433594 8.371094 162.433594 7.371094 L 162.433594 5.796875 L 164.671875 5.796875 C 167.117188 5.796875 167.28125 5.820312 167.652344 6.332031 C 167.808594 6.546875 167.832031 6.722656 167.859375 7.765625 C 167.875 8.53125 167.917969 8.949219 167.976562 8.949219 C 168.035156 8.949219 168.054688 8.582031 168.027344 7.808594 C 167.992188 6.878906 167.953125 6.605469 167.816406 6.375 C 167.613281 6.027344 167.160156 5.710938 166.847656 5.710938 C 166.394531 5.710938 166.328125 5.632812 166.601562 5.402344 C 166.921875 5.128906 167.050781 4.507812 167.007812 3.425781 C 166.972656 2.386719 166.804688 2.003906 166.261719 1.722656 C 165.902344 1.542969 165.785156 1.535156 164.074219 1.535156 L 162.265625 1.535156 Z M 166.394531 1.960938 C 166.769531 2.308594 166.855469 2.625 166.855469 3.683594 C 166.855469 4.441406 166.820312 4.722656 166.695312 5.003906 C 166.421875 5.589844 166.277344 5.625 164.21875 5.625 L 162.433594 5.625 L 162.433594 1.695312 L 164.296875 1.722656 C 166.148438 1.746094 166.167969 1.746094 166.394531 1.960938 Z M 166.394531 1.960938 "/>
<path style=" stroke:none;fill-rule:nonzero;fill:rgb(0%,0%,0%);fill-opacity:1;" d="M 163.964844 3.613281 L 163.964844 4.515625 L 164.636719 4.515625 C 165.445312 4.515625 165.519531 4.457031 165.5625 3.714844 C 165.613281 2.949219 165.46875 2.804688 164.621094 2.746094 L 163.964844 2.703125 Z M 163.964844 3.613281 "/>
</g>
</svg>
