<?xml version="1.0" encoding="UTF-8"?>
<svg xmlns="http://www.w3.org/2000/svg" xmlns:xlink="http://www.w3.org/1999/xlink" width="667px" height="47px" viewBox="0 0 667 47" version="1.1">
<g id="surface1">
<path style=" stroke:none;fill-rule:nonzero;fill:rgb(0%,0%,0%);fill-opacity:1;" d="M 342.039062 0.535156 C 340.96875 0.800781 339.371094 1.367188 338.46875 1.835938 C 336.5 2.804688 328.632812 9.347656 327.597656 10.847656 C 326.128906 13.019531 325.996094 14.21875 325.996094 25.871094 C 325.996094 35.683594 326.0625 37.085938 326.597656 38.722656 C 327.765625 42.191406 330.332031 44.664062 334.332031 46.097656 C 336 46.699219 337.269531 46.867188 342.203125 47 C 348.941406 47.167969 351.808594 46.800781 354.742188 45.429688 C 357.046875 44.328125 364.847656 37.886719 366.015625 36.117188 C 367.351562 34.082031 367.484375 32.480469 367.515625 20.5625 C 367.515625 8.042969 367.316406 6.476562 365.515625 4.273438 C 364.25 2.738281 361.046875 1.066406 358.277344 0.5 C 355.246094 -0.167969 344.773438 -0.132812 342.039062 0.535156 Z M 358.679688 1.136719 C 362.714844 2.269531 364.949219 3.9375 366.214844 6.808594 C 366.949219 8.445312 366.984375 8.980469 367.117188 18.625 C 367.316406 33.28125 366.785156 35.816406 363.25 38.085938 C 360.3125 39.957031 357.945312 40.457031 351.640625 40.65625 C 343.105469 40.890625 338.402344 39.722656 335.699219 36.71875 C 333.601562 34.382812 333.464844 33.3125 333.566406 19.960938 L 333.667969 8.144531 L 334.667969 6.140625 C 336.203125 3.171875 338.871094 1.601562 344.105469 0.667969 C 346.671875 0.199219 356.378906 0.535156 358.679688 1.136719 Z M 358.679688 1.136719 "/>
<path style=" stroke:none;fill-rule:nonzero;fill:rgb(0%,0%,0%);fill-opacity:1;" d="M 346.171875 5.542969 C 342.203125 6.308594 340.171875 8.042969 339.503906 11.183594 C 339.234375 12.449219 339.136719 15.988281 339.234375 21.832031 L 339.335938 30.609375 L 340.335938 32.210938 C 341.003906 33.3125 341.835938 34.082031 342.839844 34.617188 C 345.941406 36.183594 354.34375 36.21875 357.511719 34.617188 C 358.414062 34.183594 359.414062 33.3125 360.011719 32.445312 L 361.015625 30.976562 L 361.113281 21.261719 C 361.214844 10.449219 361.113281 9.714844 359.078125 7.746094 C 357.410156 6.140625 355.578125 5.609375 351.007812 5.507812 C 348.808594 5.441406 346.640625 5.472656 346.171875 5.542969 Z M 356.878906 6.910156 C 357.710938 7.277344 358.847656 8.179688 359.378906 8.878906 L 360.347656 10.113281 L 360.445312 20.128906 C 360.546875 29.742188 360.511719 30.175781 359.8125 31.578125 C 358.480469 34.347656 354.578125 35.652344 348.707031 35.285156 C 345.003906 35.050781 343.503906 34.617188 342.136719 33.480469 C 339.96875 31.644531 339.835938 30.945312 339.835938 20.527344 C 339.835938 12.152344 339.902344 11.050781 340.46875 9.847656 C 341.871094 6.808594 344.136719 5.976562 350.675781 6.109375 C 354.578125 6.175781 355.578125 6.308594 356.878906 6.910156 Z M 356.878906 6.910156 "/>
<path style=" stroke:none;fill-rule:nonzero;fill:rgb(0%,0%,0%);fill-opacity:1;" d="M 348.539062 11.015625 C 345.804688 11.316406 345.839844 11.183594 345.839844 20.695312 C 345.839844 30.742188 345.574219 30.210938 350.410156 30.210938 C 355.042969 30.210938 354.84375 30.644531 354.84375 20.695312 C 354.84375 13.484375 354.777344 12.683594 354.242188 12.015625 C 353.511719 11.117188 351.34375 10.75 348.539062 11.015625 Z M 347.171875 23.832031 C 347.140625 28.90625 347.105469 29.476562 346.671875 28.90625 C 345.941406 27.941406 345.941406 17.625 346.671875 17.890625 C 347.105469 18.058594 347.171875 19.027344 347.171875 23.832031 Z M 347.171875 23.832031 "/>
<path style=" stroke:none;fill-rule:nonzero;fill:rgb(0%,0%,0%);fill-opacity:1;" d="M 595.128906 0.199219 C 590.660156 1.136719 589.328125 1.871094 584.125 6.277344 C 579.324219 10.28125 578.921875 10.75 578.15625 13.351562 C 577.386719 15.890625 577.386719 35.285156 578.121094 38.152344 C 579.257812 42.527344 582.425781 45.332031 587.695312 46.566406 C 590.996094 47.332031 600.167969 47.234375 603.46875 46.398438 C 606.769531 45.566406 607.9375 44.863281 612.640625 40.890625 C 617.207031 37.019531 617.777344 36.386719 618.542969 34.214844 C 619.074219 32.746094 619.144531 31.246094 619.144531 20.695312 C 619.144531 7.308594 619.042969 6.609375 616.875 4.140625 C 614.105469 1 610.4375 0 601.835938 0.0351562 C 598.5 0.0664062 595.496094 0.132812 595.128906 0.199219 Z M 610.472656 1.167969 C 614.308594 2.238281 616.441406 3.738281 617.675781 6.242188 C 618.476562 7.8125 618.476562 8.011719 618.574219 19.792969 C 618.710938 33.3125 618.574219 34.347656 616.441406 36.71875 C 613.707031 39.722656 609.070312 40.890625 600.464844 40.65625 C 594.0625 40.457031 591.59375 39.890625 588.761719 37.921875 C 585.324219 35.582031 584.859375 33.082031 585.027344 18.691406 C 585.125 8.945312 585.160156 8.445312 585.894531 6.84375 C 586.328125 5.910156 587.125 4.707031 587.695312 4.105469 C 588.996094 2.769531 592.097656 1.367188 595.097656 0.800781 C 598.367188 0.167969 607.738281 0.402344 610.472656 1.167969 Z M 610.472656 1.167969 "/>
<path style=" stroke:none;fill-rule:nonzero;fill:rgb(0%,0%,0%);fill-opacity:1;" d="M 597.066406 5.675781 C 594.832031 6.140625 593.03125 7.242188 592.0625 8.746094 L 591.128906 10.113281 L 591.027344 19.996094 C 590.894531 31.042969 591.027344 31.8125 593.164062 33.679688 C 594.832031 35.183594 597.296875 35.785156 601.800781 35.785156 C 606.335938 35.785156 608.769531 35.183594 610.503906 33.613281 C 612.574219 31.8125 612.640625 31.476562 612.640625 20.527344 C 612.640625 11.484375 612.574219 10.546875 612.003906 9.414062 C 611.207031 7.8125 610.503906 7.210938 608.472656 6.308594 C 607.101562 5.707031 606.070312 5.542969 602.632812 5.472656 C 600.332031 5.40625 597.832031 5.507812 597.066406 5.675781 Z M 608.671875 6.941406 C 610.304688 7.746094 611.304688 8.878906 611.90625 10.648438 C 612.4375 12.152344 612.4375 28.675781 611.9375 30.542969 C 611.4375 32.3125 609.503906 34.148438 607.4375 34.75 C 606.402344 35.050781 604.234375 35.214844 601.46875 35.214844 C 597.332031 35.214844 597.03125 35.183594 595.128906 34.214844 C 593.628906 33.480469 592.929688 32.878906 592.394531 31.878906 C 591.664062 30.578125 591.628906 30.277344 591.628906 20.597656 C 591.628906 9.8125 591.664062 9.679688 593.53125 7.976562 C 594.398438 7.175781 595.5625 6.609375 597.132812 6.207031 C 597.5 6.109375 599.898438 6.074219 602.46875 6.109375 C 606.535156 6.175781 607.335938 6.277344 608.671875 6.941406 Z M 608.671875 6.941406 "/>
<path style=" stroke:none;fill-rule:nonzero;fill:rgb(0%,0%,0%);fill-opacity:1;" d="M 600.167969 11.050781 C 597.265625 11.382812 597.265625 11.449219 597.363281 20.894531 C 597.5 30.777344 597.230469 30.210938 601.765625 30.210938 C 606.570312 30.210938 606.304688 30.777344 606.304688 20.527344 C 606.304688 13.183594 606.234375 12.050781 605.769531 11.648438 C 605.101562 11.082031 602.300781 10.78125 600.167969 11.050781 Z M 598.964844 23.933594 C 598.964844 28.808594 598.898438 29.410156 598.464844 29.042969 C 598.066406 28.707031 597.964844 27.605469 597.964844 23.132812 C 597.964844 18.257812 598.03125 17.660156 598.464844 18.027344 C 598.867188 18.359375 598.964844 19.460938 598.964844 23.933594 Z M 598.964844 23.933594 "/>
<path style=" stroke:none;fill-rule:nonzero;fill:rgb(0%,0%,0%);fill-opacity:1;" d="M 16.339844 1.234375 C 15.140625 2.035156 9.238281 7.078125 8.769531 7.675781 C 8.335938 8.210938 3.570312 20.730469 2.300781 24.535156 C 1.601562 26.671875 1.535156 27.605469 1.402344 35.816406 C 1.300781 43.628906 1.335938 44.863281 1.800781 45.566406 C 2.335938 46.398438 2.402344 46.398438 7.671875 46.398438 L 12.972656 46.398438 L 16.808594 43.195312 C 20.878906 39.855469 21.34375 39.289062 21.34375 37.921875 C 21.34375 37.285156 21.511719 37.050781 22.011719 37.050781 C 22.644531 37.050781 22.679688 37.285156 22.679688 40.523438 C 22.679688 43.960938 23.011719 45.632812 23.777344 46.132812 C 24.011719 46.265625 26.546875 46.398438 29.449219 46.398438 L 34.75 46.398438 L 38.453125 43.363281 C 40.519531 41.660156 42.386719 40.058594 42.621094 39.789062 C 43.253906 38.957031 43.1875 22.464844 42.519531 19.894531 C 42.054688 18.125 40.152344 12.917969 37.019531 4.738281 C 35.351562 0.402344 36.050781 0.667969 25.847656 0.667969 C 18.242188 0.667969 17.042969 0.734375 16.339844 1.234375 Z M 34.984375 1.835938 C 35.550781 2.4375 40.488281 14.953125 41.886719 19.359375 C 42.65625 21.832031 42.988281 37.71875 42.289062 39.054688 C 41.855469 39.890625 41.789062 39.890625 36.683594 39.957031 C 33.785156 40.023438 31.28125 39.921875 31.015625 39.722656 C 30.617188 39.488281 30.480469 38.421875 30.347656 34.984375 L 30.183594 30.542969 L 20.84375 30.542969 L 20.742188 34.882812 C 20.675781 38.488281 20.578125 39.289062 20.109375 39.65625 C 19.410156 40.15625 10.605469 40.222656 9.636719 39.722656 C 9.039062 39.390625 9.003906 38.921875 9.003906 30.609375 C 9.003906 20.460938 8.972656 20.730469 12.207031 12.050781 C 15.808594 2.570312 16.109375 1.902344 17.007812 1.433594 C 17.640625 1.101562 19.875 1 26.078125 1.066406 C 33.851562 1.167969 34.382812 1.203125 34.984375 1.835938 Z M 34.984375 1.835938 "/>
<path style=" stroke:none;fill-rule:nonzero;fill:rgb(0%,0%,0%);fill-opacity:1;" d="M 20.542969 7.144531 C 19.476562 8.277344 15.742188 17.222656 15.039062 20.363281 C 14.574219 22.332031 14.574219 35.050781 15.007812 35.050781 C 15.207031 35.050781 15.339844 33.3125 15.339844 30.542969 L 15.339844 26.035156 L 36.316406 26.035156 L 36.453125 30.476562 C 36.519531 32.878906 36.550781 31.511719 36.550781 27.371094 L 36.519531 19.863281 L 34.550781 15.1875 C 31.914062 8.945312 30.816406 6.777344 30.046875 6.34375 C 29.679688 6.175781 27.648438 6.007812 25.480469 6.007812 L 21.578125 6.007812 Z M 30.28125 7.445312 C 31.183594 8.378906 35.21875 17.890625 35.851562 20.527344 C 36.117188 21.628906 36.351562 23.167969 36.351562 23.933594 L 36.351562 25.371094 L 15.339844 25.371094 L 15.339844 23.265625 C 15.339844 20.730469 15.640625 19.726562 18.140625 13.285156 C 20.84375 6.34375 20.476562 6.675781 25.480469 6.675781 C 29.28125 6.675781 29.613281 6.742188 30.28125 7.445312 Z M 30.28125 7.445312 "/>
<path style=" stroke:none;fill-rule:nonzero;fill:rgb(0%,0%,0%);fill-opacity:1;" d="M 24.113281 12.082031 C 23.910156 12.316406 23.277344 14.152344 22.679688 16.191406 C 22.078125 18.191406 21.511719 20.0625 21.410156 20.261719 C 21.3125 20.597656 22.246094 20.695312 25.480469 20.695312 C 27.78125 20.695312 29.679688 20.597656 29.679688 20.496094 C 29.679688 20.363281 29.082031 18.324219 28.347656 15.988281 L 26.980469 11.683594 L 25.710938 11.683594 C 25.011719 11.683594 24.277344 11.882812 24.113281 12.082031 Z M 24.113281 12.082031 "/>
<path style=" stroke:none;fill-rule:nonzero;fill:rgb(0%,0%,0%);fill-opacity:1;" d="M 51.859375 3.503906 C 50.023438 5.074219 48.191406 6.710938 47.789062 7.175781 L 47.023438 8.042969 L 47.023438 26.472656 C 47.023438 42.628906 47.089844 44.996094 47.558594 45.664062 C 48.058594 46.367188 48.257812 46.398438 53.460938 46.398438 L 58.863281 46.398438 L 62.699219 43.195312 C 64.800781 41.425781 66.632812 39.824219 66.765625 39.589844 C 66.898438 39.390625 67.035156 38.554688 67.035156 37.753906 C 67.035156 36.316406 67.035156 36.285156 67.699219 36.886719 C 68.300781 37.417969 68.367188 37.921875 68.367188 41.390625 C 68.367188 46.632812 68.066406 46.398438 74.804688 46.398438 L 80.007812 46.398438 L 82.609375 44.296875 C 84.042969 43.160156 85.910156 41.527344 86.777344 40.691406 L 88.378906 39.1875 L 88.378906 20.664062 C 88.378906 4.441406 88.3125 2.070312 87.84375 1.402344 C 87.34375 0.699219 87.144531 0.667969 81.90625 0.667969 L 76.503906 0.667969 L 73.070312 3.539062 L 69.636719 6.441406 L 66.898438 3.539062 L 64.199219 0.667969 L 59.695312 0.667969 L 55.195312 0.699219 Z M 63.597656 1.367188 C 64.296875 1.601562 66.433594 3.773438 70.136719 8.042969 L 75.671875 14.355469 L 75.769531 8.144531 C 75.871094 2.46875 75.9375 1.902344 76.503906 1.46875 C 77.304688 0.902344 86.042969 0.800781 87.078125 1.335938 C 87.675781 1.667969 87.710938 2.238281 87.710938 20.460938 C 87.710938 34.648438 87.609375 39.355469 87.308594 39.65625 C 87.042969 39.921875 85.34375 40.058594 81.839844 40.058594 C 77.539062 40.058594 76.703125 39.988281 76.339844 39.488281 C 76.039062 39.121094 75.804688 37.652344 75.703125 35.015625 L 75.539062 31.109375 L 71.203125 25.835938 L 66.867188 20.597656 L 66.699219 29.777344 C 66.566406 36.886719 66.433594 39.089844 66.066406 39.488281 C 65.699219 39.988281 64.867188 40.058594 60.5625 40.058594 C 57.0625 40.058594 55.359375 39.921875 55.09375 39.65625 C 54.792969 39.355469 54.695312 34.617188 54.695312 20.460938 L 54.695312 1.636719 L 55.460938 1.335938 C 56.496094 0.933594 62.398438 0.933594 63.597656 1.367188 Z M 63.597656 1.367188 "/>
<path style=" stroke:none;fill-rule:nonzero;fill:rgb(0%,0%,0%);fill-opacity:1;" d="M 60.429688 20.597656 L 60.53125 35.214844 L 60.597656 20.929688 C 60.664062 12.082031 60.832031 6.675781 61.03125 6.742188 C 61.195312 6.808594 65.898438 11.984375 71.503906 18.257812 L 81.675781 29.640625 L 81.808594 32.445312 C 81.839844 33.980469 81.90625 28.605469 81.90625 20.527344 L 81.875 5.839844 L 81.707031 17.292969 L 81.539062 28.742188 L 71.4375 17.359375 C 65.898438 11.117188 61.128906 6.007812 60.863281 6.007812 C 60.429688 6.007812 60.363281 7.878906 60.429688 20.597656 Z M 60.429688 20.597656 "/>
<path style=" stroke:none;fill-rule:nonzero;fill:rgb(0%,0%,0%);fill-opacity:1;" d="M 97.714844 3.039062 C 96.148438 4.339844 94.3125 5.941406 93.648438 6.574219 L 92.378906 7.710938 L 92.378906 12.183594 C 92.378906 17.957031 92.414062 18.027344 96.714844 18.027344 L 99.714844 18.027344 L 99.714844 29.941406 L 96.648438 32.546875 C 92.046875 36.417969 92.378906 35.75 92.378906 40.890625 C 92.378906 44.730469 92.445312 45.363281 92.980469 45.832031 C 93.546875 46.332031 94.949219 46.398438 106.285156 46.398438 L 118.992188 46.398438 L 123.027344 43.027344 C 127.628906 39.1875 127.53125 39.421875 127.332031 33.914062 C 127.195312 29.410156 127.097656 29.308594 123.0625 29.109375 L 120.058594 28.972656 L 120.058594 17.023438 L 123.5625 14.121094 C 127.597656 10.75 127.53125 10.949219 127.332031 5.339844 C 127.230469 2.101562 127.128906 1.535156 126.597656 1.136719 C 126.0625 0.769531 123.660156 0.667969 113.222656 0.667969 L 100.515625 0.667969 Z M 125.996094 1.535156 C 126.695312 2.003906 126.730469 2.269531 126.730469 6.34375 C 126.730469 11.617188 126.695312 11.683594 122.496094 11.683594 L 119.726562 11.683594 L 119.726562 29.707031 L 122.695312 29.707031 C 126.761719 29.707031 126.730469 29.675781 126.730469 34.882812 C 126.730469 38.1875 126.628906 39.121094 126.195312 39.523438 C 125.761719 39.988281 124.09375 40.058594 113.222656 40.058594 L 100.75 40.058594 L 100.25 39.324219 C 99.851562 38.753906 99.714844 37.6875 99.714844 34.882812 C 99.714844 29.808594 99.78125 29.707031 103.917969 29.707031 L 107.054688 29.707031 L 107.054688 11.75 L 103.886719 11.617188 C 101.882812 11.550781 100.582031 11.347656 100.316406 11.082031 C 100.015625 10.78125 99.882812 9.414062 99.882812 6.308594 C 99.882812 2.371094 99.949219 1.902344 100.515625 1.46875 C 101.550781 0.734375 124.929688 0.769531 125.996094 1.535156 Z M 125.996094 1.535156 "/>
<path style=" stroke:none;fill-rule:nonzero;fill:rgb(0%,0%,0%);fill-opacity:1;" d="M 104.71875 6.34375 C 104.71875 6.542969 106.320312 6.675781 108.886719 6.675781 L 113.054688 6.675781 L 113.054688 34.683594 L 108.820312 34.816406 C 106.453125 34.847656 108.519531 34.917969 113.390625 34.917969 C 118.257812 34.917969 120.328125 34.847656 117.992188 34.816406 L 113.722656 34.683594 L 113.722656 6.675781 L 117.691406 6.675781 C 119.992188 6.675781 121.761719 6.542969 121.894531 6.34375 C 122.027344 6.109375 119.125 6.007812 113.421875 6.007812 C 107.855469 6.007812 104.71875 6.140625 104.71875 6.34375 Z M 104.71875 6.34375 "/>
<path style=" stroke:none;fill-rule:nonzero;fill:rgb(0%,0%,0%);fill-opacity:1;" d="M 135.667969 3.871094 C 133.601562 5.640625 131.800781 7.277344 131.664062 7.476562 C 131.53125 7.675781 131.398438 16.257812 131.398438 26.570312 C 131.398438 44.296875 131.433594 45.332031 132 45.832031 C 132.53125 46.300781 133.433594 46.398438 137.800781 46.398438 L 143.003906 46.398438 L 147.007812 43.0625 C 149.207031 41.226562 151.074219 39.390625 151.207031 38.988281 C 151.308594 38.554688 151.410156 37.050781 151.410156 35.617188 L 151.410156 33.046875 L 152.34375 33.046875 C 152.910156 33.046875 153.910156 32.613281 154.742188 31.980469 C 155.542969 31.378906 156.445312 30.675781 156.777344 30.410156 C 157.378906 29.976562 157.410156 30.210938 157.410156 37.253906 C 157.410156 42.460938 157.546875 44.796875 157.84375 45.398438 C 158.277344 46.230469 158.277344 46.230469 163.816406 46.332031 L 169.351562 46.398438 L 171.820312 44.429688 C 173.1875 43.328125 175.085938 41.726562 176.019531 40.890625 L 177.753906 39.324219 L 177.753906 20.5625 C 177.753906 2.769531 177.722656 1.734375 177.15625 1.234375 C 176.621094 0.769531 175.6875 0.667969 170.886719 0.667969 L 165.214844 0.667969 L 161.214844 4.003906 C 159.011719 5.839844 156.976562 7.710938 156.746094 8.179688 C 156.511719 8.644531 156.210938 9.011719 156.113281 9.011719 C 156.011719 9.011719 155.078125 7.410156 154.078125 5.472656 C 153.078125 3.539062 151.875 1.667969 151.441406 1.300781 C 150.742188 0.734375 150.074219 0.667969 145.074219 0.667969 L 139.46875 0.667969 Z M 151.375 1.96875 C 151.710938 2.402344 153.144531 4.90625 154.609375 7.542969 C 158.078125 13.917969 157.945312 13.917969 161.613281 7.175781 C 163.113281 4.441406 164.683594 1.9375 165.082031 1.601562 C 165.714844 1.066406 166.515625 1 170.820312 1 C 173.621094 1 176.089844 1.167969 176.453125 1.335938 C 177.054688 1.667969 177.089844 2.238281 177.089844 20.460938 C 177.089844 34.648438 176.988281 39.355469 176.6875 39.65625 C 176.121094 40.222656 166.417969 40.222656 165.648438 39.621094 C 165.148438 39.253906 165.082031 38.152344 165.015625 29.207031 L 164.914062 19.226562 L 163.28125 22.332031 C 161.179688 26.238281 160.613281 26.703125 157.914062 26.703125 C 155.210938 26.703125 154.542969 26.171875 152.507812 22.296875 L 150.910156 19.261719 L 150.742188 29.339844 C 150.609375 37.820312 150.507812 39.457031 150.074219 39.722656 C 149.808594 39.890625 147.375 40.058594 144.671875 40.058594 C 139.96875 40.058594 139.738281 40.023438 139.269531 39.324219 C 138.800781 38.65625 138.734375 36.316406 138.734375 20.460938 C 138.734375 2.570312 138.734375 2.335938 139.4375 1.636719 C 140.070312 1 140.4375 0.96875 145.4375 1.066406 C 150.609375 1.167969 150.808594 1.203125 151.375 1.96875 Z M 151.375 1.96875 "/>
<path style=" stroke:none;fill-rule:nonzero;fill:rgb(0%,0%,0%);fill-opacity:1;" d="M 144.738281 6.84375 C 144.273438 8.042969 144.273438 35.050781 144.738281 35.050781 C 144.9375 35.050781 145.105469 29.976562 145.140625 20.929688 L 145.238281 6.84375 L 146.472656 6.84375 C 147.742188 6.84375 147.742188 6.84375 151.976562 13.183594 L 156.246094 19.527344 L 157.578125 19.628906 C 159.3125 19.761719 159.546875 19.496094 164.25 12.417969 C 167.851562 7.011719 167.984375 6.84375 169.183594 6.742188 C 169.851562 6.675781 170.453125 6.675781 170.484375 6.742188 C 170.519531 6.808594 170.652344 13.21875 170.753906 21.03125 L 170.953125 35.214844 L 171.019531 21.03125 C 171.050781 10.316406 170.984375 6.710938 170.683594 6.410156 C 170.152344 5.875 168.351562 5.910156 167.683594 6.410156 C 167.417969 6.644531 165.449219 9.511719 163.316406 12.785156 C 161.082031 16.15625 159.113281 18.859375 158.679688 19.058594 C 157.210938 19.726562 156.476562 18.992188 152.144531 12.519531 L 147.90625 6.175781 L 146.472656 6.074219 C 145.207031 5.976562 145.039062 6.074219 144.738281 6.84375 Z M 144.738281 6.84375 "/>
<path style=" stroke:none;fill-rule:nonzero;fill:rgb(0%,0%,0%);fill-opacity:1;" d="M 196.730469 1.269531 C 196.265625 1.570312 194.363281 3.105469 192.496094 4.671875 L 189.09375 7.476562 L 187.792969 10.847656 C 181.523438 26.871094 181.992188 24.933594 181.859375 35.652344 C 181.722656 43.628906 181.757812 44.863281 182.222656 45.566406 C 182.757812 46.398438 182.824219 46.398438 188.0625 46.398438 L 193.363281 46.398438 L 196.832031 43.527344 C 201.132812 39.988281 201.765625 39.253906 201.765625 38.019531 C 201.765625 37.285156 201.933594 37.050781 202.402344 37.050781 C 203 37.050781 203.066406 37.386719 203.167969 41.257812 C 203.269531 44.964844 203.335938 45.496094 203.902344 45.933594 C 204.402344 46.300781 205.804688 46.398438 209.804688 46.398438 L 215.074219 46.398438 L 217.542969 44.429688 C 218.875 43.328125 220.777344 41.726562 221.710938 40.890625 L 223.445312 39.324219 L 223.445312 30.742188 C 223.445312 23.367188 223.34375 21.796875 222.8125 19.660156 C 221.84375 15.988281 216.542969 2.304688 215.707031 1.433594 C 215.007812 0.667969 214.90625 0.667969 206.304688 0.667969 C 198.566406 0.667969 197.5 0.734375 196.730469 1.269531 Z M 215.375 1.835938 C 216.074219 2.570312 221.410156 16.355469 222.246094 19.59375 C 222.910156 22.199219 223.042969 38.988281 222.378906 39.65625 C 221.878906 40.15625 212.207031 40.222656 211.4375 39.722656 C 211.039062 39.488281 210.90625 38.421875 210.773438 34.984375 L 210.605469 30.542969 L 201.265625 30.542969 L 201.101562 34.984375 C 200.96875 38.421875 200.832031 39.488281 200.433594 39.722656 C 199.667969 40.222656 190.328125 40.15625 189.828125 39.65625 C 189.527344 39.355469 189.429688 36.851562 189.429688 30.375 C 189.429688 20.363281 189.394531 20.628906 192.429688 12.519531 C 195.929688 3.238281 196.566406 1.871094 197.433594 1.433594 C 198.066406 1.101562 200.300781 1 206.503906 1.066406 C 214.273438 1.167969 214.808594 1.203125 215.375 1.835938 Z M 215.375 1.835938 "/>
<path style=" stroke:none;fill-rule:nonzero;fill:rgb(0%,0%,0%);fill-opacity:1;" d="M 201.601562 6.410156 C 201.234375 6.609375 200.734375 7.042969 200.535156 7.308594 C 200.035156 7.945312 195.964844 18.292969 195.464844 20.195312 C 195.265625 20.964844 195.128906 24.367188 195.164062 28.375 C 195.230469 33.914062 195.265625 34.347656 195.332031 30.609375 L 195.464844 26.035156 L 216.742188 26.035156 L 216.875 30.476562 C 216.941406 32.878906 216.976562 31.511719 216.976562 27.371094 L 216.941406 19.863281 L 214.273438 13.6875 C 212.839844 10.28125 211.304688 7.175781 210.871094 6.777344 C 210.203125 6.074219 209.839844 6.007812 206.203125 6.007812 C 203.867188 6.007812 202 6.175781 201.601562 6.410156 Z M 210.871094 7.746094 C 211.304688 8.34375 212.671875 11.183594 213.875 14.054688 C 215.972656 19.058594 216.773438 21.898438 216.773438 24.269531 L 216.773438 25.371094 L 195.363281 25.371094 L 195.5625 23.097656 C 195.863281 20.296875 196.03125 19.695312 198.5 13.453125 C 201.265625 6.34375 200.902344 6.675781 205.9375 6.675781 L 210.070312 6.675781 Z M 210.871094 7.746094 "/>
<path style=" stroke:none;fill-rule:nonzero;fill:rgb(0%,0%,0%);fill-opacity:1;" d="M 204.535156 12.082031 C 204.269531 12.449219 203.101562 15.988281 201.902344 20.09375 C 201.734375 20.664062 202.066406 20.695312 205.9375 20.695312 C 209.804688 20.695312 210.136719 20.664062 209.972656 20.09375 C 208.972656 16.625 207.605469 12.417969 207.335938 12.082031 C 207.171875 11.882812 206.535156 11.683594 205.9375 11.683594 C 205.335938 11.683594 204.703125 11.882812 204.535156 12.082031 Z M 204.535156 12.082031 "/>
<path style=" stroke:none;fill-rule:nonzero;fill:rgb(0%,0%,0%);fill-opacity:1;" d="M 231.75 3.972656 C 229.613281 5.773438 227.78125 7.542969 227.648438 7.84375 C 227.546875 8.144531 227.445312 16.625 227.445312 26.671875 C 227.445312 42.628906 227.515625 44.996094 227.980469 45.664062 L 228.480469 46.398438 L 258.5625 46.398438 L 261.664062 43.863281 C 263.398438 42.460938 265.234375 40.925781 265.800781 40.390625 L 266.800781 39.457031 L 266.800781 29.609375 C 266.800781 21.097656 266.734375 19.660156 266.265625 19.226562 C 265.832031 18.792969 264.832031 18.691406 260.53125 18.691406 L 255.292969 18.691406 L 251.558594 21.898438 L 247.789062 25.070312 L 247.789062 13.621094 C 247.789062 3.773438 247.722656 2.035156 247.257812 1.402344 C 246.757812 0.699219 246.554688 0.667969 241.1875 0.667969 L 235.617188 0.667969 Z M 246.488281 1.335938 C 247.089844 1.667969 247.125 2.203125 247.125 15.6875 L 247.125 29.707031 L 254.792969 29.707031 L 254.792969 24.703125 C 254.792969 20.128906 254.859375 19.695312 255.425781 19.359375 C 255.792969 19.195312 258.128906 19.027344 260.597656 19.027344 C 266.964844 19.027344 266.464844 18.09375 266.464844 29.609375 C 266.464844 37.71875 266.398438 38.921875 265.898438 39.457031 C 265.398438 40.023438 264.464844 40.058594 250.625 40.058594 C 239.621094 40.058594 235.816406 39.957031 235.519531 39.65625 C 235.21875 39.355469 235.117188 34.648438 235.117188 20.460938 C 235.117188 2.9375 235.152344 1.667969 235.71875 1.367188 C 236.484375 0.902344 245.65625 0.902344 246.488281 1.335938 Z M 246.488281 1.335938 "/>
<path style=" stroke:none;fill-rule:nonzero;fill:rgb(0%,0%,0%);fill-opacity:1;" d="M 240.785156 20.527344 L 240.785156 35.050781 L 260.796875 35.050781 L 260.796875 29.542969 C 260.796875 26.105469 260.664062 24.035156 260.464844 24.035156 C 260.261719 24.035156 260.128906 26.035156 260.128906 29.375 L 260.128906 34.714844 L 241.453125 34.714844 L 241.453125 20.363281 C 241.453125 11.015625 241.355469 6.007812 241.121094 6.007812 C 240.886719 6.007812 240.785156 11.082031 240.785156 20.527344 Z M 240.785156 20.527344 "/>
<path style=" stroke:none;fill-rule:nonzero;fill:rgb(0%,0%,0%);fill-opacity:1;" d="M 302.050781 1.203125 C 299.417969 1.835938 298.582031 2.335938 294.878906 5.40625 C 286.808594 12.117188 287.042969 11.582031 286.875 24.335938 C 286.742188 34.214844 286.976562 36.984375 288.144531 39.621094 C 289.109375 41.792969 291.511719 44.164062 293.914062 45.265625 L 295.980469 46.230469 L 305.484375 46.332031 L 314.992188 46.433594 L 319.058594 43.0625 C 323.726562 39.222656 323.628906 39.457031 323.429688 33.914062 C 323.292969 28.941406 323.761719 29.242188 315.15625 29.109375 C 308.421875 29.007812 308.152344 28.972656 307.652344 28.273438 C 307.253906 27.707031 307.152344 26.503906 307.152344 22.800781 L 307.152344 18.027344 L 314.789062 18.027344 L 316.757812 16.421875 C 323.960938 10.613281 323.628906 11.117188 323.429688 5.339844 C 323.328125 2.136719 323.226562 1.535156 322.660156 1.136719 C 321.761719 0.46875 304.851562 0.5 302.050781 1.203125 Z M 322.09375 1.535156 C 322.792969 2.003906 322.828125 2.269531 322.828125 6.34375 C 322.828125 12.015625 323.363281 11.683594 314.757812 11.683594 C 308.585938 11.683594 308.121094 11.714844 307.488281 12.351562 C 306.851562 12.984375 306.820312 13.453125 306.820312 20.597656 C 306.820312 24.800781 306.953125 28.375 307.085938 28.574219 C 307.71875 29.542969 308.953125 29.707031 315.289062 29.707031 C 320.761719 29.707031 321.859375 29.808594 322.292969 30.242188 C 323.09375 31.011719 323.0625 38.753906 322.261719 39.554688 C 321.792969 40.058594 320.726562 40.089844 312.355469 39.988281 C 303.683594 39.890625 302.851562 39.824219 300.984375 39.121094 C 298.382812 38.152344 296.882812 36.886719 295.648438 34.683594 L 294.648438 32.878906 L 294.648438 20.695312 C 294.648438 9.046875 294.679688 8.445312 295.347656 7.011719 C 296.78125 3.9375 299.714844 1.96875 303.820312 1.402344 C 305.019531 1.234375 309.453125 1.066406 313.65625 1.035156 C 320.125 1 321.460938 1.066406 322.09375 1.535156 Z M 322.09375 1.535156 "/>
<path style=" stroke:none;fill-rule:nonzero;fill:rgb(0%,0%,0%);fill-opacity:1;" d="M 304.386719 6.476562 C 302.652344 6.941406 301.683594 7.675781 300.851562 9.179688 C 300.382812 10.046875 300.316406 11.550781 300.316406 20.527344 C 300.316406 30.34375 300.351562 30.945312 301.015625 32.179688 C 302.285156 34.617188 303.285156 34.882812 311.15625 34.917969 L 317.992188 34.949219 L 311.488281 34.75 C 304.351562 34.515625 303.085938 34.183594 301.683594 32.277344 C 301.015625 31.378906 300.984375 30.808594 300.882812 21.164062 C 300.75 6.441406 300.417969 6.910156 311.089844 6.742188 C 314.925781 6.675781 317.824219 6.507812 317.824219 6.308594 C 317.824219 5.839844 306.253906 5.976562 304.386719 6.476562 Z M 304.386719 6.476562 "/>
<path style=" stroke:none;fill-rule:nonzero;fill:rgb(0%,0%,0%);fill-opacity:1;" d="M 376.1875 3.871094 C 374.085938 5.640625 372.253906 7.277344 372.121094 7.476562 C 371.984375 7.675781 371.851562 16.257812 371.851562 26.570312 C 371.851562 44.296875 371.886719 45.332031 372.453125 45.832031 C 373.019531 46.332031 374.585938 46.398438 387.992188 46.398438 L 402.933594 46.398438 L 406.636719 43.363281 C 408.703125 41.660156 410.570312 40.058594 410.804688 39.789062 C 411.105469 39.390625 411.207031 36.820312 411.207031 29.542969 C 411.207031 20.527344 411.171875 19.761719 410.605469 19.261719 C 410.070312 18.792969 409.171875 18.691406 404.800781 18.691406 L 399.632812 18.691406 L 396.097656 21.699219 C 394.164062 23.332031 392.496094 24.703125 392.394531 24.703125 C 392.296875 24.703125 392.195312 19.628906 392.195312 13.417969 C 392.195312 3.773438 392.128906 2.035156 391.664062 1.402344 C 391.164062 0.699219 390.960938 0.667969 385.59375 0.667969 L 379.988281 0.667969 Z M 391.195312 1.667969 C 391.394531 1.96875 391.527344 7.878906 391.527344 15.921875 L 391.527344 29.707031 L 398.832031 29.707031 L 398.933594 24.835938 C 399.03125 20.460938 399.097656 19.929688 399.667969 19.496094 C 400.601562 18.828125 409.136719 18.828125 410.070312 19.496094 C 410.671875 19.960938 410.707031 20.460938 410.707031 29.476562 C 410.707031 37.019531 410.605469 39.054688 410.238281 39.488281 C 409.839844 39.988281 408.335938 40.058594 394.996094 40.058594 L 380.191406 40.058594 L 379.691406 39.253906 C 379.222656 38.589844 379.191406 36.25 379.257812 20.230469 C 379.355469 2.402344 379.355469 1.9375 380.023438 1.46875 C 380.992188 0.734375 390.730469 0.933594 391.195312 1.667969 Z M 391.195312 1.667969 "/>
<path style=" stroke:none;fill-rule:nonzero;fill:rgb(0%,0%,0%);fill-opacity:1;" d="M 385.191406 20.527344 L 385.191406 35.050781 L 405.203125 35.050781 L 405.203125 29.542969 C 405.203125 26.105469 405.070312 24.035156 404.867188 24.035156 C 404.667969 24.035156 404.535156 26.035156 404.535156 29.375 L 404.535156 34.714844 L 385.859375 34.714844 L 385.859375 20.363281 C 385.859375 11.015625 385.757812 6.007812 385.527344 6.007812 C 385.292969 6.007812 385.191406 11.082031 385.191406 20.527344 Z M 385.191406 20.527344 "/>
<path style=" stroke:none;fill-rule:nonzero;fill:rgb(0%,0%,0%);fill-opacity:1;" d="M 419.144531 3.871094 C 417.074219 5.640625 415.273438 7.277344 415.140625 7.476562 C 415.007812 7.675781 414.875 16.257812 414.875 26.570312 C 414.875 44.296875 414.90625 45.332031 415.472656 45.832031 C 416.042969 46.332031 417.609375 46.398438 430.980469 46.398438 L 445.855469 46.398438 L 448.324219 44.429688 C 449.65625 43.328125 451.558594 41.726562 452.492188 40.890625 L 454.226562 39.324219 L 454.226562 29.742188 C 454.226562 21.628906 454.160156 20.0625 453.695312 19.425781 C 453.191406 18.726562 452.992188 18.691406 447.890625 18.691406 L 442.585938 18.691406 L 439.085938 21.699219 C 437.152344 23.367188 435.519531 24.703125 435.417969 24.703125 C 435.316406 24.703125 435.183594 19.496094 435.152344 13.152344 C 435.050781 2.167969 435.015625 1.601562 434.417969 1.136719 C 433.917969 0.769531 432.484375 0.667969 428.347656 0.667969 L 422.945312 0.667969 Z M 433.816406 1.535156 L 434.550781 2.035156 L 434.550781 29.707031 L 441.886719 29.707031 L 441.886719 25.035156 C 441.886719 18.792969 441.6875 19.027344 447.757812 19.027344 C 450.226562 19.027344 452.558594 19.195312 452.925781 19.359375 C 453.527344 19.695312 453.558594 20.160156 453.558594 29.476562 C 453.558594 36.652344 453.460938 39.355469 453.160156 39.65625 C 452.859375 39.957031 449.023438 40.058594 438.019531 40.058594 L 423.246094 40.058594 L 422.746094 39.324219 C 422.277344 38.65625 422.210938 36.316406 422.210938 20.460938 C 422.210938 2.769531 422.210938 2.335938 422.878906 1.667969 C 423.476562 1.066406 423.980469 1 428.3125 1 C 432.082031 1 433.214844 1.101562 433.816406 1.535156 Z M 433.816406 1.535156 "/>
<path style=" stroke:none;fill-rule:nonzero;fill:rgb(0%,0%,0%);fill-opacity:1;" d="M 428.214844 20.527344 L 428.214844 35.050781 L 448.222656 35.050781 L 448.222656 29.542969 C 448.222656 26.105469 448.089844 24.035156 447.890625 24.035156 C 447.691406 24.035156 447.558594 26.035156 447.558594 29.375 L 447.558594 34.714844 L 428.882812 34.714844 L 428.882812 20.363281 C 428.882812 11.015625 428.78125 6.007812 428.546875 6.007812 C 428.3125 6.007812 428.214844 11.082031 428.214844 20.527344 Z M 428.214844 20.527344 "/>
<path style=" stroke:none;fill-rule:nonzero;fill:rgb(0%,0%,0%);fill-opacity:1;" d="M 462.496094 3.539062 C 460.597656 5.140625 458.796875 6.710938 458.496094 7.078125 C 457.929688 7.710938 457.894531 9.113281 457.894531 26.539062 C 457.894531 43.195312 457.960938 45.398438 458.429688 45.863281 C 458.863281 46.332031 460.628906 46.398438 472.667969 46.398438 L 486.410156 46.398438 L 490.476562 43.0625 C 494.347656 39.855469 494.546875 39.65625 494.78125 38.222656 C 495.113281 35.949219 494.78125 30.441406 494.3125 29.976562 C 494.011719 29.675781 492.347656 29.476562 489.410156 29.375 L 484.910156 29.207031 L 487.578125 26.9375 L 490.246094 24.703125 L 490.246094 20.496094 C 490.246094 18.191406 490.113281 16.023438 489.910156 15.6875 C 489.644531 15.15625 489.945312 14.753906 492.078125 13.019531 C 494.949219 10.613281 495.082031 10.214844 494.847656 4.808594 C 494.746094 2.136719 494.613281 1.503906 494.082031 1.136719 C 493.578125 0.769531 490.878906 0.667969 479.707031 0.667969 L 465.933594 0.667969 Z M 493.511719 1.535156 C 494.214844 2.003906 494.246094 2.269531 494.246094 6.175781 C 494.246094 9.480469 494.148438 10.414062 493.714844 10.816406 C 493.28125 11.28125 492.011719 11.347656 485.210938 11.347656 L 477.238281 11.347656 L 477.238281 15.320312 L 483.109375 15.421875 C 488.445312 15.523438 489.011719 15.589844 489.445312 16.15625 C 490.078125 17.023438 490.113281 23.632812 489.511719 24.46875 C 489.144531 24.933594 488.242188 25.035156 483.242188 25.101562 L 477.40625 25.203125 L 477.304688 27.4375 L 477.207031 29.707031 L 484.976562 29.707031 C 491.480469 29.707031 492.878906 29.808594 493.511719 30.242188 C 494.214844 30.710938 494.246094 30.976562 494.246094 34.882812 C 494.246094 38.1875 494.148438 39.121094 493.714844 39.523438 C 493.28125 39.988281 491.546875 40.058594 479.738281 40.058594 C 467.933594 40.058594 466.199219 39.988281 465.765625 39.523438 C 465.300781 39.054688 465.234375 36.886719 465.234375 20.527344 L 465.234375 2.035156 L 465.964844 1.535156 C 466.601562 1.066406 468.5 1 479.738281 1 C 490.980469 1 492.878906 1.066406 493.511719 1.535156 Z M 493.511719 1.535156 "/>
<path style=" stroke:none;fill-rule:nonzero;fill:rgb(0%,0%,0%);fill-opacity:1;" d="M 471.234375 20.527344 L 471.234375 35.050781 L 480.339844 34.984375 L 489.410156 34.917969 L 480.574219 34.714844 L 471.734375 34.550781 L 471.636719 27.605469 L 471.570312 20.695312 L 478.238281 20.695312 C 482.472656 20.695312 484.910156 20.5625 484.910156 20.363281 C 484.910156 20.160156 482.472656 20.027344 478.238281 20.027344 L 471.570312 20.027344 L 471.570312 6.675781 L 480.40625 6.675781 C 486.078125 6.675781 489.246094 6.542969 489.246094 6.34375 C 489.246094 6.140625 486.007812 6.007812 480.238281 6.007812 L 471.234375 6.007812 Z M 471.234375 20.527344 "/>
<path style=" stroke:none;fill-rule:nonzero;fill:rgb(0%,0%,0%);fill-opacity:1;" d="M 512.824219 1.203125 C 510.1875 1.835938 509.355469 2.335938 505.652344 5.40625 C 497.582031 12.117188 497.816406 11.582031 497.648438 24.335938 C 497.515625 34.214844 497.75 36.984375 498.914062 39.621094 C 499.882812 41.792969 502.285156 44.164062 504.6875 45.265625 L 506.753906 46.230469 L 525.761719 46.433594 L 529.832031 43.0625 C 534.5 39.222656 534.402344 39.457031 534.199219 33.914062 C 534.066406 28.941406 534.535156 29.242188 525.929688 29.109375 C 519.191406 29.007812 518.925781 28.972656 518.425781 28.273438 C 518.027344 27.707031 517.925781 26.503906 517.925781 22.800781 L 517.925781 18.027344 L 525.5625 18.027344 L 527.53125 16.421875 C 534.734375 10.613281 534.402344 11.117188 534.199219 5.339844 C 534.101562 2.136719 534 1.535156 533.433594 1.136719 C 532.53125 0.46875 515.625 0.5 512.824219 1.203125 Z M 532.898438 1.570312 C 533.601562 2.136719 533.632812 2.402344 533.535156 6.507812 C 533.433594 10.75 533.398438 10.847656 532.597656 11.25 C 532 11.550781 529.832031 11.683594 525.363281 11.683594 C 519.359375 11.683594 518.894531 11.714844 518.257812 12.351562 C 517.625 12.984375 517.59375 13.453125 517.59375 20.597656 C 517.59375 24.800781 517.726562 28.375 517.859375 28.574219 C 518.492188 29.542969 519.726562 29.707031 526.0625 29.707031 C 531.53125 29.707031 532.632812 29.808594 533.066406 30.242188 C 533.867188 31.011719 533.832031 38.753906 533.03125 39.554688 C 532.566406 40.058594 531.5 40.089844 523.128906 39.988281 C 514.457031 39.890625 513.625 39.824219 511.753906 39.121094 C 509.15625 38.152344 507.652344 36.886719 506.417969 34.683594 L 505.417969 32.878906 L 505.417969 20.695312 C 505.417969 9.046875 505.453125 8.445312 506.121094 7.011719 C 507.554688 3.9375 510.488281 1.96875 514.589844 1.402344 C 515.792969 1.234375 520.226562 1.066406 524.460938 1.035156 C 531.367188 1 532.265625 1.066406 532.898438 1.570312 Z M 532.898438 1.570312 "/>
<path style=" stroke:none;fill-rule:nonzero;fill:rgb(0%,0%,0%);fill-opacity:1;" d="M 515.15625 6.476562 C 513.421875 6.941406 512.457031 7.675781 511.621094 9.179688 C 511.15625 10.046875 511.089844 11.550781 511.089844 20.527344 C 511.089844 30.34375 511.121094 30.945312 511.789062 32.179688 C 513.054688 34.617188 514.058594 34.882812 521.925781 34.917969 L 528.765625 34.949219 L 522.261719 34.75 C 515.125 34.515625 513.855469 34.183594 512.457031 32.277344 C 511.789062 31.378906 511.753906 30.808594 511.65625 21.164062 C 511.523438 6.441406 511.1875 6.910156 521.859375 6.742188 C 525.695312 6.675781 528.597656 6.507812 528.597656 6.308594 C 528.597656 5.839844 517.023438 5.976562 515.15625 6.476562 Z M 515.15625 6.476562 "/>
<path style=" stroke:none;fill-rule:nonzero;fill:rgb(0%,0%,0%);fill-opacity:1;" d="M 539.636719 4.003906 C 535.035156 7.878906 535.132812 7.644531 535.335938 13.183594 C 535.46875 17.992188 535.5 18.027344 541.136719 18.027344 L 545.273438 18.027344 L 545.273438 31.476562 C 545.273438 43.09375 545.339844 45.03125 545.804688 45.664062 C 546.304688 46.367188 546.507812 46.398438 551.941406 46.398438 L 557.578125 46.398438 L 560.046875 44.429688 C 561.378906 43.328125 563.28125 41.726562 564.214844 40.890625 L 565.949219 39.324219 L 565.949219 18.125 L 566.882812 17.925781 C 568.015625 17.691406 575.355469 11.617188 575.722656 10.582031 C 575.886719 10.179688 575.953125 8.011719 575.886719 5.742188 C 575.789062 2.101562 575.722656 1.570312 575.152344 1.136719 C 574.585938 0.734375 571.851562 0.667969 559.046875 0.667969 L 543.605469 0.667969 Z M 574.554688 1.535156 C 575.253906 2.003906 575.289062 2.269531 575.289062 6.34375 C 575.289062 11.851562 575.453125 11.683594 569.550781 11.683594 L 565.28125 11.683594 L 565.28125 25.46875 C 565.28125 35.75 565.183594 39.355469 564.882812 39.65625 C 564.316406 40.222656 553.910156 40.222656 553.34375 39.65625 C 553.042969 39.355469 552.941406 35.75 552.941406 25.46875 L 552.941406 11.683594 L 548.675781 11.683594 C 542.769531 11.683594 542.9375 11.851562 542.9375 6.410156 C 542.9375 2.101562 543.039062 1.570312 543.9375 1.234375 C 544.207031 1.136719 551.042969 1.035156 559.113281 1.035156 C 571.886719 1 573.886719 1.066406 574.554688 1.535156 Z M 574.554688 1.535156 "/>
<path style=" stroke:none;fill-rule:nonzero;fill:rgb(0%,0%,0%);fill-opacity:1;" d="M 547.773438 6.34375 C 547.90625 6.542969 550.175781 6.675781 553.441406 6.675781 L 558.945312 6.675781 L 559.046875 20.929688 L 559.113281 35.214844 L 559.210938 20.929688 L 559.28125 6.675781 L 564.75 6.675781 C 568.050781 6.675781 570.316406 6.542969 570.453125 6.34375 C 570.585938 6.109375 566.714844 6.007812 559.113281 6.007812 C 551.507812 6.007812 547.640625 6.109375 547.773438 6.34375 Z M 547.773438 6.34375 "/>
<path style=" stroke:none;fill-rule:nonzero;fill:rgb(0%,0%,0%);fill-opacity:1;" d="M 627.679688 4.003906 C 624.445312 6.710938 623.644531 7.578125 623.476562 8.445312 C 623.378906 9.046875 623.3125 17.589844 623.378906 27.472656 C 623.476562 44.832031 623.511719 45.464844 624.113281 45.933594 C 624.613281 46.300781 626.011719 46.398438 630.082031 46.398438 L 635.417969 46.398438 L 638.285156 43.996094 C 643.820312 39.390625 643.65625 39.621094 643.65625 36.652344 C 643.65625 34.75 643.753906 34.046875 644.089844 34.046875 C 645.15625 34.046875 645.324219 34.847656 645.324219 40.058594 C 645.324219 44.695312 645.390625 45.363281 645.921875 45.832031 C 646.457031 46.300781 647.390625 46.398438 651.925781 46.398438 L 657.296875 46.398438 L 661.128906 43.195312 C 663.265625 41.457031 665.132812 39.722656 665.332031 39.390625 C 665.898438 38.320312 665.765625 25.804688 665.132812 23.734375 C 664.566406 21.765625 662.832031 19.660156 661.332031 19.027344 C 660.761719 18.792969 660.328125 18.59375 660.328125 18.558594 C 660.328125 18.558594 660.695312 17.792969 661.164062 16.890625 C 661.898438 15.457031 661.996094 14.820312 661.996094 11.785156 C 661.996094 5.875 660.929688 3.570312 657.496094 1.835938 L 655.496094 0.835938 L 631.683594 0.632812 Z M 655.894531 1.667969 C 656.695312 1.902344 657.996094 2.671875 658.796875 3.371094 C 660.863281 5.175781 661.496094 7.011719 661.496094 11.015625 C 661.496094 15.089844 661.195312 16.390625 659.996094 17.691406 C 659.429688 18.292969 658.996094 18.792969 658.996094 18.859375 C 658.996094 18.894531 659.394531 19.027344 659.929688 19.128906 C 661.5625 19.460938 663.132812 20.796875 664.097656 22.664062 L 665 24.5 L 665 31.910156 C 665 38.957031 664.964844 39.390625 664.367188 39.722656 C 664 39.890625 661.53125 40.058594 658.695312 40.058594 C 652.324219 40.058594 652.660156 40.425781 652.660156 33.515625 C 652.660156 29.207031 652.59375 28.375 652.09375 28.007812 C 651.726562 27.671875 650.292969 27.503906 647.457031 27.4375 L 643.355469 27.304688 L 643.253906 33.148438 C 643.1875 37.453125 643.019531 39.089844 642.6875 39.488281 C 642.019531 40.289062 632.316406 40.324219 631.515625 39.523438 C 631.046875 39.054688 630.980469 36.886719 630.980469 20.527344 L 630.980469 2.035156 L 631.75 1.503906 C 632.382812 1.035156 633.75 0.96875 643.488281 1.101562 C 651.023438 1.203125 654.925781 1.367188 655.894531 1.667969 Z M 655.894531 1.667969 "/>
<path style=" stroke:none;fill-rule:nonzero;fill:rgb(0%,0%,0%);fill-opacity:1;" d="M 636.652344 20.527344 C 636.652344 29.976562 636.75 35.050781 636.984375 35.050781 C 637.183594 35.050781 637.320312 32.78125 637.320312 28.875 L 637.320312 22.699219 L 646.089844 22.699219 C 655.695312 22.699219 656.328125 22.800781 657.796875 24.800781 C 658.394531 25.636719 658.496094 26.335938 658.597656 30.410156 C 658.664062 33.414062 658.828125 35.050781 659.0625 35.050781 C 659.296875 35.050781 659.363281 33.613281 659.261719 30.578125 C 659.128906 26.9375 658.960938 25.871094 658.429688 24.96875 C 657.628906 23.601562 655.859375 22.363281 654.628906 22.363281 C 652.859375 22.363281 652.59375 22.066406 653.660156 21.164062 C 654.925781 20.09375 655.425781 17.660156 655.261719 13.417969 C 655.128906 9.347656 654.460938 7.84375 652.324219 6.742188 C 650.925781 6.042969 650.457031 6.007812 643.753906 6.007812 L 636.652344 6.007812 Z M 652.859375 7.675781 C 654.328125 9.046875 654.660156 10.28125 654.660156 14.421875 C 654.660156 17.390625 654.527344 18.492188 654.027344 19.59375 C 652.960938 21.898438 652.394531 22.03125 644.320312 22.03125 L 637.320312 22.03125 L 637.320312 6.644531 L 644.621094 6.742188 C 651.890625 6.84375 651.960938 6.84375 652.859375 7.675781 Z M 652.859375 7.675781 "/>
<path style=" stroke:none;fill-rule:nonzero;fill:rgb(0%,0%,0%);fill-opacity:1;" d="M 643.320312 14.152344 L 643.320312 17.691406 L 645.957031 17.691406 C 649.125 17.691406 649.425781 17.457031 649.589844 14.554688 C 649.792969 11.550781 649.222656 10.980469 645.890625 10.75 L 643.320312 10.582031 Z M 643.320312 14.152344 "/>
</g>
</svg>
