<?xml version="1.0" encoding="UTF-8"?>
<svg xmlns="http://www.w3.org/2000/svg" xmlns:xlink="http://www.w3.org/1999/xlink" width="500px" height="48px" viewBox="0 0 502 48" version="1.1">
<g id="surface1">
<path style=" stroke:none;fill-rule:nonzero;fill:rgb(0%,0%,0%);fill-opacity:1;" d="M 196.582031 0.425781 C 196.660156 0.804688 196.984375 0.902344 198.492188 0.953125 L 200.296875 1.027344 L 200.296875 46.445312 L 198.539062 46.445312 C 196.960938 46.445312 196.785156 46.492188 196.785156 46.945312 C 196.785156 47.449219 196.960938 47.449219 206.320312 47.449219 C 215.683594 47.449219 215.859375 47.449219 215.859375 46.945312 C 215.859375 46.492188 215.683594 46.445312 214.101562 46.445312 L 212.347656 46.445312 L 212.347656 0 L 204.414062 0 C 197.011719 0 196.507812 0.0234375 196.582031 0.425781 Z M 196.582031 0.425781 "/>
<path style=" stroke:none;fill-rule:nonzero;fill:rgb(0%,0%,0%);fill-opacity:1;" d="M 306.019531 0.425781 C 306.09375 0.804688 306.421875 0.902344 307.925781 0.953125 L 309.734375 1.027344 L 309.734375 46.445312 L 307.976562 46.445312 C 306.394531 46.445312 306.21875 46.492188 306.21875 46.945312 C 306.21875 47.449219 306.394531 47.449219 315.757812 47.449219 C 325.121094 47.449219 325.296875 47.449219 325.296875 46.945312 C 325.296875 46.492188 325.121094 46.445312 323.539062 46.445312 L 321.78125 46.445312 L 321.78125 0 L 313.851562 0 C 306.445312 0 305.945312 0.0234375 306.019531 0.425781 Z M 306.019531 0.425781 "/>
<path style=" stroke:none;fill-rule:nonzero;fill:rgb(0%,0%,0%);fill-opacity:1;" d="M 326.300781 0.503906 C 326.300781 0.953125 326.476562 1.003906 328.183594 1.003906 L 330.066406 1.003906 L 330.015625 23.648438 L 329.941406 46.316406 L 328.257812 46.394531 C 326.75 46.46875 326.550781 46.519531 326.550781 46.945312 C 326.550781 47.449219 326.800781 47.449219 335.964844 47.449219 C 345.199219 47.449219 345.375 47.449219 345.375 46.945312 C 345.375 46.492188 345.199219 46.445312 343.617188 46.445312 L 341.863281 46.445312 L 341.863281 0 L 334.082031 0 C 326.476562 0 326.300781 0 326.300781 0.503906 Z M 326.300781 0.503906 "/>
<path style=" stroke:none;fill-rule:nonzero;fill:rgb(0%,0%,0%);fill-opacity:1;" d="M 92.015625 1.378906 C 90.484375 1.90625 89.808594 2.535156 89.03125 4.042969 C 88.402344 5.246094 88.328125 5.597656 88.425781 7.15625 C 88.652344 10.945312 90.6875 12.804688 94.628906 12.804688 C 97.816406 12.804688 100.046875 11.398438 100.777344 8.9375 C 101.832031 5.398438 100.449219 2.308594 97.414062 1.40625 C 95.757812 0.902344 93.347656 0.902344 92.015625 1.378906 Z M 92.015625 1.378906 "/>
<path style=" stroke:none;fill-rule:nonzero;fill:rgb(0%,0%,0%);fill-opacity:1;" d="M 248.867188 2.410156 C 246.78125 2.761719 243.820312 3.589844 242.390625 4.242188 C 238.097656 6.175781 234.585938 9.664062 232.652344 13.933594 C 230.265625 19.230469 229.742188 27.464844 231.421875 34.015625 C 232.976562 40.140625 237.246094 44.785156 243.144531 46.796875 C 246.179688 47.824219 247.964844 48.023438 253.257812 47.875 C 257.578125 47.773438 258.53125 47.671875 261.417969 46.972656 C 263.222656 46.542969 264.878906 46.191406 265.132812 46.191406 C 265.355469 46.191406 265.808594 46.46875 266.109375 46.820312 C 267.164062 48.023438 267.238281 47.75 267.414062 42.980469 C 267.492188 40.542969 267.617188 37.378906 267.691406 35.949219 L 267.816406 33.390625 L 267.214844 33.390625 C 266.6875 33.390625 266.410156 33.765625 265.332031 35.976562 C 262.796875 41.121094 259.960938 44.5625 257.023438 46.015625 C 253.8125 47.597656 250.070312 46.894531 247.738281 44.234375 C 245.730469 41.976562 244.324219 38.058594 243.746094 33.261719 C 243.394531 30.375 243.394531 19.332031 243.722656 16.570312 C 244.550781 9.867188 246.632812 5.722656 249.945312 4.191406 C 250.875 3.765625 251.601562 3.640625 253.257812 3.640625 C 255.089844 3.640625 255.59375 3.742188 256.875 4.367188 C 259.558594 5.699219 262.144531 8.863281 264.878906 14.234375 C 265.984375 16.394531 266.285156 16.820312 266.761719 16.820312 C 267.339844 16.820312 267.363281 16.746094 267.214844 15.613281 C 267.140625 14.960938 267.015625 11.875 266.914062 8.710938 C 266.738281 2.511719 266.664062 2.285156 265.457031 3.691406 L 264.855469 4.394531 L 262.269531 3.789062 C 260.839844 3.4375 258.980469 3.039062 258.152344 2.835938 C 256.621094 2.484375 250.246094 2.210938 248.867188 2.410156 Z M 248.867188 2.410156 "/>
<path style=" stroke:none;fill-rule:nonzero;fill:rgb(0%,0%,0%);fill-opacity:1;" d="M 20.558594 3.1875 C 20.40625 3.589844 16.84375 13.15625 12.652344 24.476562 C 8.457031 35.800781 4.894531 45.363281 4.742188 45.765625 C 4.46875 46.394531 4.367188 46.445312 2.988281 46.445312 C 1.683594 46.445312 1.507812 46.492188 1.507812 46.945312 C 1.507812 47.421875 1.683594 47.449219 6.402344 47.449219 C 11.121094 47.449219 11.296875 47.421875 11.296875 46.945312 C 11.296875 46.46875 11.121094 46.445312 8.886719 46.445312 C 7.054688 46.445312 6.5 46.367188 6.578125 46.140625 C 6.652344 45.964844 7.757812 42.855469 9.035156 39.214844 L 11.371094 32.636719 L 24.046875 32.636719 L 26.253906 39.238281 C 27.460938 42.855469 28.488281 45.964844 28.5625 46.117188 C 28.640625 46.367188 28.113281 46.445312 26.378906 46.445312 C 24.273438 46.445312 24.097656 46.46875 24.097656 46.945312 C 24.097656 47.449219 24.273438 47.449219 34.511719 47.449219 C 44.753906 47.449219 44.929688 47.449219 44.929688 46.945312 C 44.929688 46.492188 44.753906 46.445312 43.523438 46.445312 C 42.191406 46.445312 42.117188 46.417969 41.816406 45.613281 C 41.617188 45.1875 38.101562 35.648438 34.011719 24.476562 C 29.917969 13.28125 26.40625 3.765625 26.230469 3.3125 L 25.878906 2.511719 L 23.34375 2.511719 C 20.832031 2.511719 20.808594 2.511719 20.558594 3.1875 Z M 23.34375 30.929688 C 23.34375 31.054688 20.78125 31.128906 17.671875 31.128906 C 13.226562 31.128906 12.023438 31.054688 12.097656 30.804688 C 12.171875 30.652344 13.503906 26.914062 15.085938 22.519531 L 17.945312 14.535156 L 20.632812 22.644531 C 22.136719 27.113281 23.34375 30.828125 23.34375 30.929688 Z M 23.34375 30.929688 "/>
<path style=" stroke:none;fill-rule:nonzero;fill:rgb(0%,0%,0%);fill-opacity:1;" d="M 419.296875 7.554688 L 413.523438 8.960938 L 413.445312 13.15625 L 413.398438 17.320312 L 411.640625 17.320312 C 410.058594 17.320312 409.882812 17.371094 409.882812 17.824219 C 409.882812 18.277344 410.058594 18.328125 411.613281 18.328125 L 413.371094 18.328125 L 413.445312 30.050781 C 413.546875 43.105469 413.546875 43.105469 415.253906 45.113281 C 417.160156 47.296875 419.671875 48.050781 424.816406 47.898438 C 428.785156 47.800781 429.988281 47.398438 431.667969 45.742188 C 432.722656 44.660156 434.128906 41.773438 434.429688 39.992188 C 434.632812 38.835938 434.605469 38.6875 434.179688 38.585938 C 433.902344 38.511719 433.652344 38.585938 433.601562 38.738281 C 433.550781 38.914062 433.277344 39.839844 433 40.84375 C 432.324219 43.15625 431.191406 44.636719 429.636719 45.289062 C 428.53125 45.742188 428.355469 45.765625 427.378906 45.4375 C 426.550781 45.136719 426.199219 44.835938 425.820312 44.058594 C 425.34375 43.105469 425.320312 42.476562 425.246094 30.679688 L 425.167969 18.328125 L 429.308594 18.328125 C 433.300781 18.328125 433.476562 18.300781 433.476562 17.824219 C 433.476562 17.347656 433.300781 17.320312 429.335938 17.320312 L 425.195312 17.320312 L 425.144531 11.722656 L 425.070312 6.125 Z M 419.296875 7.554688 "/>
<path style=" stroke:none;fill-rule:nonzero;fill:rgb(0%,0%,0%);fill-opacity:1;" d="M 68.046875 16.820312 C 65.511719 17.371094 63.652344 18.804688 62.273438 21.339844 L 61.496094 22.71875 L 61.496094 17.320312 L 53.839844 17.320312 C 46.359375 17.320312 46.183594 17.320312 46.183594 17.824219 C 46.183594 18.277344 46.359375 18.328125 47.941406 18.328125 L 49.699219 18.328125 L 49.699219 46.445312 L 47.941406 46.445312 C 46.359375 46.445312 46.183594 46.492188 46.183594 46.945312 C 46.183594 47.449219 46.359375 47.449219 55.21875 47.449219 C 64.082031 47.449219 64.257812 47.449219 64.257812 46.945312 C 64.257812 46.492188 64.082031 46.445312 62.851562 46.445312 L 61.46875 46.445312 L 61.546875 35.949219 C 61.621094 25.730469 61.644531 25.457031 62.199219 24.074219 C 63.652344 20.410156 66.1875 18.679688 67.871094 20.109375 C 68.898438 21.011719 69.023438 22.59375 69.023438 35.195312 L 69.023438 46.445312 L 67.644531 46.445312 C 66.441406 46.445312 66.265625 46.492188 66.265625 46.945312 C 66.265625 47.449219 66.441406 47.449219 75.300781 47.449219 C 84.160156 47.449219 84.335938 47.449219 84.335938 46.945312 C 84.335938 46.492188 84.160156 46.445312 82.578125 46.445312 L 80.820312 46.445312 L 80.820312 35.949219 C 80.820312 24.503906 80.695312 23.171875 79.390625 20.8125 C 77.933594 18.101562 75.5 16.820312 71.535156 16.667969 C 70.230469 16.621094 68.648438 16.695312 68.046875 16.820312 Z M 68.046875 16.820312 "/>
<path style=" stroke:none;fill-rule:nonzero;fill:rgb(0%,0%,0%);fill-opacity:1;" d="M 127.132812 16.894531 C 124.472656 17.597656 122.863281 18.855469 121.507812 21.339844 L 120.730469 22.71875 L 120.730469 17.320312 L 113.074219 17.320312 C 105.59375 17.320312 105.421875 17.320312 105.421875 17.824219 C 105.421875 18.277344 105.59375 18.328125 107.175781 18.328125 L 108.933594 18.328125 L 108.933594 46.445312 L 107.175781 46.445312 C 105.59375 46.445312 105.421875 46.492188 105.421875 46.945312 C 105.421875 47.449219 105.59375 47.449219 114.203125 47.449219 C 122.8125 47.449219 122.988281 47.449219 122.988281 46.945312 C 122.988281 46.519531 122.8125 46.445312 121.835938 46.445312 L 120.707031 46.445312 L 120.78125 35.949219 C 120.882812 25.957031 120.90625 25.40625 121.410156 24.050781 C 122.5625 20.960938 124.472656 19.15625 125.875 19.78125 C 127.082031 20.335938 127.105469 20.636719 127.207031 33.941406 L 127.28125 46.445312 L 126.152344 46.445312 C 125.171875 46.445312 124.996094 46.519531 124.996094 46.945312 C 124.996094 47.449219 125.171875 47.449219 133.15625 47.449219 C 141.136719 47.449219 141.3125 47.449219 141.3125 46.945312 C 141.3125 46.519531 141.136719 46.445312 140.160156 46.445312 L 139.027344 46.445312 L 139.105469 35.824219 C 139.179688 25.554688 139.203125 25.179688 139.757812 23.722656 C 140.433594 21.917969 141.414062 20.636719 142.617188 19.957031 C 143.371094 19.554688 143.621094 19.53125 144.175781 19.78125 C 145.40625 20.335938 145.429688 20.609375 145.53125 33.941406 L 145.605469 46.445312 L 144.476562 46.445312 C 143.496094 46.445312 143.320312 46.519531 143.320312 46.945312 C 143.320312 47.449219 143.496094 47.449219 152.105469 47.449219 C 160.714844 47.449219 160.890625 47.449219 160.890625 46.945312 C 160.890625 46.492188 160.714844 46.445312 159.132812 46.445312 L 157.378906 46.445312 L 157.378906 35.699219 C 157.378906 24.328125 157.277344 23.070312 156.121094 20.8125 C 155.367188 19.332031 153.761719 17.925781 152.15625 17.273438 C 150.097656 16.46875 146.082031 16.46875 144 17.296875 C 142.140625 18.023438 140.359375 19.757812 139.378906 21.789062 L 138.628906 23.347656 L 138.324219 22.292969 C 137.625 19.90625 136.015625 18.175781 133.65625 17.171875 C 132.351562 16.621094 128.761719 16.46875 127.132812 16.894531 Z M 127.132812 16.894531 "/>
<path style=" stroke:none;fill-rule:nonzero;fill:rgb(0%,0%,0%);fill-opacity:1;" d="M 173.164062 16.820312 C 169.398438 17.347656 166.5625 18.753906 165.308594 20.660156 C 164.378906 22.140625 164.003906 24 164.355469 25.730469 C 164.90625 28.46875 166.4375 29.597656 169.5 29.625 C 173.089844 29.625 175.199219 27.765625 175.199219 24.628906 C 175.199219 22.542969 174.898438 21.839844 173.96875 21.839844 C 173.542969 21.839844 173.191406 21.691406 173.089844 21.4375 C 172.890625 20.886719 172.914062 19.003906 173.140625 18.679688 C 173.992188 17.449219 176.554688 17.144531 177.582031 18.175781 C 178.585938 19.179688 178.761719 20.359375 178.886719 26.660156 L 179.011719 32.636719 L 176.175781 32.636719 C 170.78125 32.636719 166.511719 33.640625 164.65625 35.296875 C 163.148438 36.652344 162.574219 38.308594 162.699219 40.894531 C 162.75 42.628906 162.898438 43.332031 163.425781 44.308594 C 164.179688 45.816406 165.734375 47.046875 167.46875 47.574219 C 169.046875 48.023438 174.070312 48.074219 175.550781 47.648438 C 176.730469 47.273438 178.335938 45.765625 178.886719 44.511719 L 179.238281 43.632812 L 179.765625 44.6875 C 180.417969 45.992188 181.875 47.070312 183.683594 47.597656 C 185.539062 48.152344 191.285156 48 192.417969 47.398438 C 194.425781 46.292969 195.527344 44.308594 196.007812 40.820312 C 196.355469 38.335938 196.355469 38.410156 195.804688 38.410156 C 195.429688 38.410156 195.304688 38.660156 195.175781 39.839844 C 194.902344 42.199219 194.324219 43.859375 193.621094 44.410156 C 192.792969 45.0625 192.492188 45.0625 191.738281 44.460938 L 191.136719 43.984375 L 190.984375 34.71875 C 190.886719 28.769531 190.710938 25.003906 190.507812 24.101562 C 189.582031 20.058594 187.699219 18.175781 183.683594 17.195312 C 181.773438 16.71875 175.449219 16.519531 173.164062 16.820312 Z M 178.914062 38.210938 C 178.835938 42.402344 178.789062 42.902344 178.261719 43.859375 C 177.082031 46.09375 175.5 46.21875 174.921875 44.132812 C 174.519531 42.550781 174.722656 36.753906 175.25 35.773438 C 176 34.394531 176.980469 33.691406 178.285156 33.664062 L 179.011719 33.640625 Z M 178.914062 38.210938 "/>
<path style=" stroke:none;fill-rule:nonzero;fill:rgb(0%,0%,0%);fill-opacity:1;" d="M 285.261719 16.820312 C 281.472656 17.421875 278.761719 18.703125 276.453125 20.960938 C 273.691406 23.671875 272.359375 27.363281 272.335938 32.308594 C 272.335938 40.59375 276.023438 45.941406 282.902344 47.574219 C 283.980469 47.824219 285.8125 47.949219 288.425781 47.949219 C 294.523438 47.949219 297.734375 46.894531 300.574219 43.90625 C 303.234375 41.121094 304.464844 37.355469 304.464844 31.984375 C 304.464844 23.699219 301.375 19.027344 294.75 17.296875 C 292.492188 16.695312 287.597656 16.46875 285.261719 16.820312 Z M 290.03125 18.125 C 290.960938 18.527344 291.613281 19.957031 291.964844 22.269531 C 292.390625 25.003906 292.363281 40.972656 291.9375 43.179688 C 291.386719 46.015625 290.457031 46.945312 288.25 46.945312 C 286.71875 46.945312 285.863281 46.09375 285.136719 43.78125 C 284.609375 42.152344 284.582031 41.597656 284.558594 33.390625 C 284.535156 24 284.757812 21.136719 285.714844 19.429688 C 286.039062 18.902344 286.566406 18.328125 286.894531 18.152344 C 287.695312 17.75 289.175781 17.722656 290.03125 18.125 Z M 290.03125 18.125 "/>
<path style=" stroke:none;fill-rule:nonzero;fill:rgb(0%,0%,0%);fill-opacity:1;" d="M 359.910156 16.820312 C 356.644531 17.347656 353.660156 18.726562 351.375 20.785156 C 349.691406 22.292969 348.5625 24.050781 347.710938 26.535156 C 347.082031 28.316406 347.03125 28.820312 347.03125 32.132812 C 347.03125 34.820312 347.15625 36.199219 347.484375 37.40625 C 348.941406 42.726562 352.578125 46.34375 357.699219 47.574219 C 359.882812 48.074219 366.558594 48.101562 368.542969 47.574219 C 372.007812 46.667969 374.292969 44.785156 375.972656 41.398438 C 377.152344 39.0625 377.277344 38.335938 376.476562 38.460938 C 376.125 38.511719 375.796875 38.960938 375.394531 39.941406 C 373.4375 44.761719 368.71875 47.195312 364.023438 45.816406 C 360.835938 44.863281 359.207031 40.746094 359.179688 33.714844 L 359.179688 31.128906 L 368.167969 31.078125 L 377.128906 31.003906 L 377.050781 29.121094 C 376.828125 22.570312 374.039062 18.703125 368.441406 17.171875 C 366.761719 16.71875 361.816406 16.519531 359.910156 16.820312 Z M 364.175781 18.226562 C 365.304688 19.027344 365.53125 20.109375 365.65625 25.15625 L 365.757812 29.875 L 359.179688 29.875 L 359.179688 27.539062 C 359.179688 22.269531 359.960938 18.980469 361.390625 18.199219 C 362.292969 17.722656 363.449219 17.722656 364.175781 18.226562 Z M 364.175781 18.226562 "/>
<path style=" stroke:none;fill-rule:nonzero;fill:rgb(0%,0%,0%);fill-opacity:1;" d="M 392.816406 16.84375 C 385.960938 17.898438 381.320312 22.191406 380.113281 28.644531 C 379.636719 31.15625 379.761719 35.671875 380.390625 38.035156 C 381.695312 42.980469 385.007812 46.316406 389.929688 47.574219 C 392.011719 48.101562 398.261719 48.101562 400.117188 47.546875 C 404.3125 46.316406 406.894531 43.65625 408.203125 39.238281 C 408.601562 37.882812 408.550781 37.65625 407.875 37.65625 C 407.597656 37.65625 407.347656 38.109375 407.046875 39.085938 C 406.496094 40.894531 404.636719 43.65625 403.40625 44.511719 C 402.050781 45.464844 400.496094 45.941406 398.765625 45.941406 C 394.671875 45.941406 393.015625 44.082031 392.289062 38.761719 C 391.886719 35.699219 392.136719 25.078125 392.664062 22.746094 C 393.140625 20.660156 394.09375 18.953125 395.148438 18.300781 C 396.054688 17.773438 397.960938 17.671875 398.9375 18.101562 C 399.894531 18.527344 400.445312 19.90625 400.269531 21.390625 C 400.070312 22.996094 399.992188 23.097656 398.839844 23.097656 C 398.3125 23.097656 397.785156 23.222656 397.710938 23.347656 C 397.609375 23.496094 397.535156 24.402344 397.535156 25.355469 C 397.535156 27.765625 398.210938 28.996094 400.070312 29.925781 C 401.097656 30.453125 401.800781 30.628906 402.90625 30.628906 C 406.34375 30.628906 408.050781 28.894531 408.300781 25.128906 C 408.476562 22.667969 407.875 21.113281 406.09375 19.457031 C 404.058594 17.546875 401.851562 16.84375 397.457031 16.695312 C 395.800781 16.644531 393.71875 16.71875 392.816406 16.84375 Z M 392.816406 16.84375 "/>
<path style=" stroke:none;fill-rule:nonzero;fill:rgb(0%,0%,0%);fill-opacity:1;" d="M 448.6875 16.820312 C 442.238281 17.847656 437.917969 21.515625 436.339844 27.363281 C 435.734375 29.574219 435.734375 35.070312 436.3125 37.507812 C 436.914062 39.867188 438.347656 42.527344 439.925781 44.082031 C 441.382812 45.539062 444.019531 46.972656 446.402344 47.574219 C 448.511719 48.101562 455.339844 48.101562 457.546875 47.546875 C 462.742188 46.269531 465.957031 43.054688 467.414062 37.683594 C 468.113281 35.121094 468.164062 29.347656 467.539062 26.738281 C 466.28125 21.640625 463.09375 18.425781 458.050781 17.195312 C 456.09375 16.71875 450.71875 16.519531 448.6875 16.820312 Z M 453.859375 18.328125 C 455.390625 19.507812 455.816406 22.71875 455.816406 32.863281 C 455.816406 42.679688 455.414062 45.390625 453.757812 46.542969 C 453.054688 47.046875 451.246094 47.070312 450.320312 46.570312 C 449.414062 46.117188 448.5625 44.160156 448.234375 41.824219 C 447.910156 39.539062 448.136719 23.144531 448.511719 21.515625 C 448.886719 19.757812 449.515625 18.601562 450.269531 18.199219 C 451.246094 17.671875 453.105469 17.722656 453.859375 18.328125 Z M 453.859375 18.328125 "/>
<path style=" stroke:none;fill-rule:nonzero;fill:rgb(0%,0%,0%);fill-opacity:1;" d="M 491.332031 16.921875 C 488.695312 17.75 486.890625 19.304688 485.785156 21.691406 L 485.183594 22.972656 L 485.183594 17.320312 L 477.527344 17.320312 C 470.046875 17.320312 469.871094 17.320312 469.871094 17.824219 C 469.871094 18.277344 470.046875 18.328125 471.628906 18.328125 L 473.386719 18.328125 L 473.386719 46.445312 L 471.628906 46.445312 C 470.046875 46.445312 469.871094 46.492188 469.871094 46.945312 C 469.871094 47.449219 470.046875 47.449219 479.785156 47.449219 C 489.523438 47.449219 489.699219 47.449219 489.699219 46.945312 C 489.699219 46.46875 489.523438 46.445312 487.441406 46.445312 L 485.183594 46.445312 L 485.183594 36.953125 C 485.183594 28.367188 485.234375 27.261719 485.660156 25.53125 C 486.714844 21.464844 488.722656 19.078125 491.082031 19.078125 C 492.386719 19.078125 492.964844 19.457031 492.964844 20.335938 C 492.964844 20.738281 492.839844 21.339844 492.6875 21.691406 C 492.4375 22.21875 492.1875 22.34375 491.230469 22.394531 C 490.101562 22.46875 490.078125 22.492188 489.851562 23.523438 C 489.5 25.203125 489.851562 26.761719 490.855469 27.867188 C 491.984375 29.121094 493.0625 29.472656 495.347656 29.320312 C 497.65625 29.171875 498.660156 28.59375 499.640625 26.8125 C 500.292969 25.605469 500.367188 25.253906 500.367188 23.222656 C 500.34375 20.585938 499.867188 19.378906 498.308594 18.101562 C 496.628906 16.695312 493.617188 16.191406 491.332031 16.921875 Z M 491.332031 16.921875 "/>
<path style=" stroke:none;fill-rule:nonzero;fill:rgb(0%,0%,0%);fill-opacity:1;" d="M 84.839844 17.824219 C 84.839844 18.277344 85.015625 18.328125 86.71875 18.328125 L 88.601562 18.328125 L 88.601562 46.445312 L 86.847656 46.445312 C 85.265625 46.445312 85.089844 46.492188 85.089844 46.945312 C 85.089844 47.449219 85.265625 47.449219 94.628906 47.449219 C 103.988281 47.449219 104.164062 47.449219 104.164062 46.945312 C 104.164062 46.492188 103.988281 46.445312 102.40625 46.445312 L 100.652344 46.445312 L 100.652344 17.320312 L 92.746094 17.320312 C 85.015625 17.320312 84.839844 17.320312 84.839844 17.824219 Z M 84.839844 17.824219 "/>
</g>
</svg>
