<?xml version="1.0" encoding="UTF-8"?>
<svg xmlns="http://www.w3.org/2000/svg" xmlns:xlink="http://www.w3.org/1999/xlink" width="210px" height="20px" viewBox="0 0 209 20" version="1.1">
<g id="surface1">
<path style=" stroke:none;fill-rule:nonzero;fill:rgb(0%,0%,0%);fill-opacity:1;" d="M 81.84375 0.179688 C 81.875 0.335938 82.011719 0.375 82.636719 0.398438 L 83.390625 0.429688 L 83.390625 19.351562 L 82.660156 19.351562 C 82 19.351562 81.929688 19.371094 81.929688 19.5625 C 81.929688 19.769531 82 19.769531 85.898438 19.769531 C 89.796875 19.769531 89.871094 19.769531 89.871094 19.5625 C 89.871094 19.371094 89.796875 19.351562 89.136719 19.351562 L 88.40625 19.351562 L 88.40625 0 L 85.105469 0 C 82.023438 0 81.8125 0.0117188 81.84375 0.179688 Z M 81.84375 0.179688 "/>
<path style=" stroke:none;fill-rule:nonzero;fill:rgb(0%,0%,0%);fill-opacity:1;" d="M 127.40625 0.179688 C 127.4375 0.335938 127.574219 0.375 128.199219 0.398438 L 128.953125 0.429688 L 128.953125 19.351562 L 128.222656 19.351562 C 127.5625 19.351562 127.488281 19.371094 127.488281 19.5625 C 127.488281 19.769531 127.5625 19.769531 131.460938 19.769531 C 135.359375 19.769531 135.433594 19.769531 135.433594 19.5625 C 135.433594 19.371094 135.359375 19.351562 134.699219 19.351562 L 133.96875 19.351562 L 133.96875 0 L 130.667969 0 C 127.585938 0 127.375 0.0117188 127.40625 0.179688 Z M 127.40625 0.179688 "/>
<path style=" stroke:none;fill-rule:nonzero;fill:rgb(0%,0%,0%);fill-opacity:1;" d="M 135.851562 0.210938 C 135.851562 0.398438 135.921875 0.417969 136.632812 0.417969 L 137.417969 0.417969 L 137.398438 9.855469 L 137.367188 19.300781 L 136.664062 19.332031 C 136.039062 19.363281 135.953125 19.382812 135.953125 19.5625 C 135.953125 19.769531 136.058594 19.769531 139.875 19.769531 C 143.71875 19.769531 143.792969 19.769531 143.792969 19.5625 C 143.792969 19.371094 143.71875 19.351562 143.058594 19.351562 L 142.328125 19.351562 L 142.328125 0 L 139.089844 0 C 135.921875 0 135.851562 0 135.851562 0.210938 Z M 135.851562 0.210938 "/>
<path style=" stroke:none;fill-rule:nonzero;fill:rgb(0%,0%,0%);fill-opacity:1;" d="M 38.308594 0.574219 C 37.671875 0.796875 37.390625 1.054688 37.066406 1.683594 C 36.804688 2.1875 36.773438 2.332031 36.816406 2.980469 C 36.910156 4.5625 37.753906 5.335938 39.398438 5.335938 C 40.722656 5.335938 41.652344 4.75 41.957031 3.722656 C 42.394531 2.25 41.820312 0.960938 40.554688 0.585938 C 39.867188 0.375 38.863281 0.375 38.308594 0.574219 Z M 38.308594 0.574219 "/>
<path style=" stroke:none;fill-rule:nonzero;fill:rgb(0%,0%,0%);fill-opacity:1;" d="M 103.613281 1.003906 C 102.746094 1.152344 101.511719 1.496094 100.914062 1.769531 C 99.128906 2.574219 97.664062 4.027344 96.859375 5.804688 C 95.867188 8.011719 95.648438 11.445312 96.347656 14.171875 C 96.996094 16.726562 98.773438 18.660156 101.230469 19.496094 C 102.492188 19.925781 103.234375 20.011719 105.441406 19.949219 C 107.238281 19.90625 107.636719 19.863281 108.835938 19.570312 C 109.589844 19.394531 110.277344 19.246094 110.382812 19.246094 C 110.476562 19.246094 110.664062 19.363281 110.789062 19.507812 C 111.230469 20.011719 111.261719 19.894531 111.335938 17.90625 C 111.367188 16.894531 111.417969 15.574219 111.449219 14.980469 L 111.5 13.914062 L 111.25 13.914062 C 111.03125 13.914062 110.917969 14.070312 110.46875 14.988281 C 109.410156 17.132812 108.230469 18.566406 107.007812 19.171875 C 105.671875 19.832031 104.113281 19.539062 103.140625 18.429688 C 102.304688 17.488281 101.71875 15.859375 101.480469 13.859375 C 101.332031 12.65625 101.332031 8.054688 101.46875 6.902344 C 101.8125 4.109375 102.683594 2.386719 104.0625 1.746094 C 104.449219 1.570312 104.75 1.515625 105.441406 1.515625 C 106.203125 1.515625 106.414062 1.558594 106.945312 1.820312 C 108.0625 2.375 109.140625 3.691406 110.277344 5.929688 C 110.738281 6.832031 110.863281 7.007812 111.0625 7.007812 C 111.304688 7.007812 111.3125 6.976562 111.25 6.507812 C 111.21875 6.234375 111.167969 4.949219 111.125 3.628906 C 111.050781 1.046875 111.019531 0.953125 110.519531 1.539062 L 110.269531 1.832031 L 109.191406 1.578125 C 108.597656 1.433594 107.824219 1.265625 107.476562 1.183594 C 106.839844 1.035156 104.1875 0.921875 103.613281 1.003906 Z M 103.613281 1.003906 "/>
<path style=" stroke:none;fill-rule:nonzero;fill:rgb(0%,0%,0%);fill-opacity:1;" d="M 8.558594 1.328125 C 8.496094 1.496094 7.011719 5.480469 5.265625 10.199219 C 3.523438 14.917969 2.039062 18.902344 1.976562 19.070312 C 1.859375 19.332031 1.816406 19.351562 1.242188 19.351562 C 0.699219 19.351562 0.628906 19.371094 0.628906 19.5625 C 0.628906 19.757812 0.699219 19.769531 2.664062 19.769531 C 4.628906 19.769531 4.703125 19.757812 4.703125 19.5625 C 4.703125 19.363281 4.628906 19.351562 3.699219 19.351562 C 2.9375 19.351562 2.707031 19.320312 2.738281 19.226562 C 2.769531 19.152344 3.230469 17.855469 3.761719 16.339844 L 4.734375 13.597656 L 10.011719 13.597656 L 10.929688 16.347656 C 11.433594 17.855469 11.859375 19.152344 11.890625 19.214844 C 11.921875 19.320312 11.703125 19.351562 10.984375 19.351562 C 10.105469 19.351562 10.03125 19.363281 10.03125 19.5625 C 10.03125 19.769531 10.105469 19.769531 14.367188 19.769531 C 18.632812 19.769531 18.707031 19.769531 18.707031 19.5625 C 18.707031 19.371094 18.632812 19.351562 18.121094 19.351562 C 17.566406 19.351562 17.535156 19.339844 17.410156 19.007812 C 17.324219 18.828125 15.863281 14.855469 14.160156 10.199219 C 12.457031 5.535156 10.992188 1.570312 10.921875 1.378906 L 10.773438 1.046875 L 9.71875 1.046875 C 8.671875 1.046875 8.664062 1.046875 8.558594 1.328125 Z M 9.71875 12.886719 C 9.71875 12.9375 8.652344 12.972656 7.355469 12.972656 C 5.507812 12.972656 5.003906 12.9375 5.035156 12.835938 C 5.066406 12.773438 5.621094 11.214844 6.28125 9.382812 L 7.472656 6.054688 L 8.589844 9.433594 C 9.21875 11.296875 9.71875 12.84375 9.71875 12.886719 Z M 9.71875 12.886719 "/>
<path style=" stroke:none;fill-rule:nonzero;fill:rgb(0%,0%,0%);fill-opacity:1;" d="M 174.566406 3.148438 L 172.164062 3.734375 L 172.132812 5.480469 L 172.113281 7.21875 L 171.378906 7.21875 C 170.722656 7.21875 170.648438 7.238281 170.648438 7.425781 C 170.648438 7.613281 170.722656 7.636719 171.371094 7.636719 L 172.101562 7.636719 L 172.132812 12.519531 C 172.175781 17.960938 172.175781 17.960938 172.886719 18.796875 C 173.679688 19.707031 174.722656 20.019531 176.867188 19.957031 C 178.515625 19.917969 179.019531 19.75 179.71875 19.058594 C 180.15625 18.609375 180.742188 17.40625 180.867188 16.664062 C 180.953125 16.183594 180.941406 16.121094 180.765625 16.078125 C 180.648438 16.046875 180.542969 16.078125 180.523438 16.140625 C 180.503906 16.214844 180.386719 16.601562 180.273438 17.019531 C 179.992188 17.980469 179.519531 18.597656 178.871094 18.871094 C 178.414062 19.058594 178.339844 19.070312 177.933594 18.933594 C 177.585938 18.808594 177.441406 18.683594 177.285156 18.359375 C 177.085938 17.960938 177.074219 17.699219 177.042969 12.78125 L 177.011719 7.636719 L 178.738281 7.636719 C 180.398438 7.636719 180.472656 7.625 180.472656 7.425781 C 180.472656 7.226562 180.398438 7.21875 178.746094 7.21875 L 177.023438 7.21875 L 177.003906 4.886719 L 176.972656 2.550781 Z M 174.566406 3.148438 "/>
<path style=" stroke:none;fill-rule:nonzero;fill:rgb(0%,0%,0%);fill-opacity:1;" d="M 28.328125 7.007812 C 27.273438 7.238281 26.5 7.835938 25.925781 8.890625 L 25.601562 9.464844 L 25.601562 7.21875 L 22.414062 7.21875 C 19.300781 7.21875 19.226562 7.21875 19.226562 7.425781 C 19.226562 7.613281 19.300781 7.636719 19.960938 7.636719 L 20.691406 7.636719 L 20.691406 19.351562 L 19.960938 19.351562 C 19.300781 19.351562 19.226562 19.371094 19.226562 19.5625 C 19.226562 19.769531 19.300781 19.769531 22.988281 19.769531 C 26.679688 19.769531 26.753906 19.769531 26.753906 19.5625 C 26.753906 19.371094 26.679688 19.351562 26.167969 19.351562 L 25.59375 19.351562 L 25.625 14.980469 C 25.65625 10.722656 25.664062 10.605469 25.894531 10.03125 C 26.5 8.503906 27.558594 7.78125 28.257812 8.378906 C 28.683594 8.753906 28.738281 9.414062 28.738281 14.664062 L 28.738281 19.351562 L 28.164062 19.351562 C 27.660156 19.351562 27.589844 19.371094 27.589844 19.5625 C 27.589844 19.769531 27.660156 19.769531 31.351562 19.769531 C 35.039062 19.769531 35.113281 19.769531 35.113281 19.5625 C 35.113281 19.371094 35.039062 19.351562 34.378906 19.351562 L 33.648438 19.351562 L 33.648438 14.980469 C 33.648438 10.210938 33.597656 9.65625 33.054688 8.671875 C 32.445312 7.542969 31.433594 7.007812 29.78125 6.945312 C 29.238281 6.925781 28.582031 6.957031 28.328125 7.007812 Z M 28.328125 7.007812 "/>
<path style=" stroke:none;fill-rule:nonzero;fill:rgb(0%,0%,0%);fill-opacity:1;" d="M 52.929688 7.039062 C 51.820312 7.332031 51.152344 7.855469 50.589844 8.890625 L 50.265625 9.464844 L 50.265625 7.21875 L 47.078125 7.21875 C 43.964844 7.21875 43.890625 7.21875 43.890625 7.425781 C 43.890625 7.613281 43.964844 7.636719 44.621094 7.636719 L 45.351562 7.636719 L 45.351562 19.351562 L 44.621094 19.351562 C 43.964844 19.351562 43.890625 19.371094 43.890625 19.5625 C 43.890625 19.769531 43.964844 19.769531 47.546875 19.769531 C 51.132812 19.769531 51.203125 19.769531 51.203125 19.5625 C 51.203125 19.382812 51.132812 19.351562 50.722656 19.351562 L 50.253906 19.351562 L 50.285156 14.980469 C 50.328125 10.816406 50.335938 10.585938 50.546875 10.019531 C 51.027344 8.734375 51.820312 7.980469 52.40625 8.242188 C 52.910156 8.472656 52.917969 8.597656 52.960938 14.140625 L 52.992188 19.351562 L 52.523438 19.351562 C 52.113281 19.351562 52.039062 19.382812 52.039062 19.5625 C 52.039062 19.769531 52.113281 19.769531 55.4375 19.769531 C 58.761719 19.769531 58.832031 19.769531 58.832031 19.5625 C 58.832031 19.382812 58.761719 19.351562 58.351562 19.351562 L 57.882812 19.351562 L 57.914062 14.925781 C 57.945312 10.648438 57.957031 10.492188 58.1875 9.886719 C 58.46875 9.132812 58.875 8.597656 59.375 8.316406 C 59.691406 8.148438 59.792969 8.136719 60.023438 8.242188 C 60.535156 8.472656 60.546875 8.585938 60.589844 14.140625 L 60.621094 19.351562 L 60.148438 19.351562 C 59.742188 19.351562 59.667969 19.382812 59.667969 19.5625 C 59.667969 19.769531 59.742188 19.769531 63.328125 19.769531 C 66.910156 19.769531 66.984375 19.769531 66.984375 19.5625 C 66.984375 19.371094 66.910156 19.351562 66.253906 19.351562 L 65.523438 19.351562 L 65.523438 14.875 C 65.523438 10.136719 65.480469 9.613281 65 8.671875 C 64.683594 8.054688 64.015625 7.46875 63.347656 7.195312 C 62.492188 6.863281 60.820312 6.863281 59.953125 7.207031 C 59.179688 7.511719 58.4375 8.230469 58.027344 9.078125 L 57.714844 9.726562 L 57.589844 9.289062 C 57.296875 8.296875 56.628906 7.574219 55.644531 7.15625 C 55.101562 6.925781 53.609375 6.863281 52.929688 7.039062 Z M 52.929688 7.039062 "/>
<path style=" stroke:none;fill-rule:nonzero;fill:rgb(0%,0%,0%);fill-opacity:1;" d="M 72.09375 7.007812 C 70.527344 7.226562 69.347656 7.8125 68.824219 8.609375 C 68.4375 9.226562 68.28125 10 68.425781 10.722656 C 68.65625 11.863281 69.292969 12.332031 70.570312 12.34375 C 72.0625 12.34375 72.941406 11.570312 72.941406 10.261719 C 72.941406 9.394531 72.816406 9.101562 72.429688 9.101562 C 72.25 9.101562 72.105469 9.039062 72.0625 8.933594 C 71.980469 8.703125 71.988281 7.917969 72.085938 7.78125 C 72.4375 7.269531 73.503906 7.144531 73.933594 7.574219 C 74.351562 7.992188 74.425781 8.484375 74.476562 11.109375 L 74.53125 13.597656 L 73.347656 13.597656 C 71.101562 13.597656 69.324219 14.015625 68.550781 14.707031 C 67.925781 15.273438 67.683594 15.960938 67.738281 17.039062 C 67.757812 17.761719 67.820312 18.054688 68.039062 18.460938 C 68.351562 19.089844 69 19.601562 69.722656 19.820312 C 70.378906 20.011719 72.472656 20.03125 73.085938 19.855469 C 73.578125 19.695312 74.246094 19.070312 74.476562 18.546875 L 74.625 18.179688 L 74.84375 18.621094 C 75.113281 19.164062 75.71875 19.613281 76.472656 19.832031 C 77.246094 20.0625 79.640625 20 80.109375 19.75 C 80.945312 19.289062 81.40625 18.460938 81.605469 17.007812 C 81.75 15.972656 81.75 16.003906 81.519531 16.003906 C 81.363281 16.003906 81.3125 16.109375 81.257812 16.601562 C 81.144531 17.582031 80.902344 18.273438 80.609375 18.503906 C 80.265625 18.777344 80.140625 18.777344 79.828125 18.523438 L 79.578125 18.328125 L 79.515625 14.464844 C 79.472656 11.988281 79.398438 10.417969 79.316406 10.042969 C 78.929688 8.359375 78.144531 7.574219 76.472656 7.164062 C 75.679688 6.964844 73.046875 6.882812 72.09375 7.007812 Z M 74.488281 15.921875 C 74.457031 17.667969 74.433594 17.875 74.214844 18.273438 C 73.726562 19.203125 73.066406 19.257812 72.824219 18.390625 C 72.660156 17.730469 72.742188 15.3125 72.960938 14.90625 C 73.277344 14.332031 73.683594 14.039062 74.226562 14.027344 L 74.53125 14.015625 Z M 74.488281 15.921875 "/>
<path style=" stroke:none;fill-rule:nonzero;fill:rgb(0%,0%,0%);fill-opacity:1;" d="M 118.765625 7.007812 C 117.1875 7.257812 116.058594 7.792969 115.097656 8.734375 C 113.945312 9.863281 113.394531 11.402344 113.382812 13.460938 C 113.382812 16.914062 114.917969 19.140625 117.78125 19.820312 C 118.230469 19.925781 118.996094 19.980469 120.082031 19.980469 C 122.621094 19.980469 123.957031 19.539062 125.140625 18.296875 C 126.246094 17.132812 126.757812 15.566406 126.757812 13.328125 C 126.757812 9.875 125.472656 7.929688 122.714844 7.207031 C 121.773438 6.957031 119.734375 6.863281 118.765625 7.007812 Z M 120.75 7.550781 C 121.136719 7.71875 121.40625 8.316406 121.554688 9.277344 C 121.730469 10.417969 121.722656 17.070312 121.542969 17.992188 C 121.3125 19.171875 120.925781 19.5625 120.007812 19.5625 C 119.371094 19.5625 119.015625 19.203125 118.710938 18.242188 C 118.492188 17.5625 118.480469 17.332031 118.472656 13.914062 C 118.460938 10 118.554688 8.808594 118.953125 8.097656 C 119.089844 7.875 119.308594 7.636719 119.445312 7.5625 C 119.777344 7.394531 120.394531 7.386719 120.75 7.550781 Z M 120.75 7.550781 "/>
<path style=" stroke:none;fill-rule:nonzero;fill:rgb(0%,0%,0%);fill-opacity:1;" d="M 149.84375 7.007812 C 148.484375 7.226562 147.242188 7.804688 146.289062 8.660156 C 145.589844 9.289062 145.121094 10.019531 144.765625 11.054688 C 144.503906 11.800781 144.480469 12.007812 144.480469 13.390625 C 144.480469 14.507812 144.535156 15.082031 144.667969 15.585938 C 145.277344 17.804688 146.792969 19.308594 148.921875 19.820312 C 149.832031 20.03125 152.613281 20.042969 153.4375 19.820312 C 154.878906 19.445312 155.832031 18.660156 156.53125 17.25 C 157.023438 16.277344 157.074219 15.972656 156.738281 16.023438 C 156.59375 16.046875 156.457031 16.234375 156.289062 16.640625 C 155.476562 18.652344 153.511719 19.664062 151.554688 19.089844 C 150.230469 18.691406 149.550781 16.976562 149.539062 14.046875 L 149.539062 12.972656 L 153.28125 12.949219 L 157.011719 12.917969 L 156.980469 12.132812 C 156.886719 9.402344 155.726562 7.792969 153.394531 7.15625 C 152.695312 6.964844 150.636719 6.882812 149.84375 7.007812 Z M 151.617188 7.59375 C 152.089844 7.929688 152.183594 8.378906 152.234375 10.480469 L 152.277344 12.449219 L 149.539062 12.449219 L 149.539062 11.476562 C 149.539062 9.277344 149.863281 7.90625 150.460938 7.582031 C 150.835938 7.386719 151.316406 7.386719 151.617188 7.59375 Z M 151.617188 7.59375 "/>
<path style=" stroke:none;fill-rule:nonzero;fill:rgb(0%,0%,0%);fill-opacity:1;" d="M 163.542969 7.019531 C 160.691406 7.457031 158.757812 9.246094 158.253906 11.933594 C 158.054688 12.980469 158.109375 14.863281 158.371094 15.847656 C 158.914062 17.90625 160.292969 19.300781 162.339844 19.820312 C 163.207031 20.042969 165.808594 20.042969 166.582031 19.8125 C 168.328125 19.300781 169.40625 18.191406 169.949219 16.347656 C 170.117188 15.785156 170.09375 15.691406 169.8125 15.691406 C 169.699219 15.691406 169.59375 15.878906 169.46875 16.285156 C 169.238281 17.039062 168.464844 18.191406 167.953125 18.546875 C 167.386719 18.945312 166.738281 19.140625 166.019531 19.140625 C 164.316406 19.140625 163.625 18.367188 163.324219 16.152344 C 163.15625 14.875 163.261719 10.449219 163.480469 9.476562 C 163.679688 8.609375 164.074219 7.898438 164.515625 7.625 C 164.890625 7.40625 165.683594 7.363281 166.09375 7.542969 C 166.488281 7.71875 166.71875 8.296875 166.644531 8.914062 C 166.5625 9.582031 166.53125 9.625 166.050781 9.625 C 165.832031 9.625 165.613281 9.675781 165.582031 9.726562 C 165.539062 9.789062 165.507812 10.167969 165.507812 10.566406 C 165.507812 11.570312 165.789062 12.082031 166.5625 12.46875 C 166.992188 12.6875 167.285156 12.761719 167.742188 12.761719 C 169.175781 12.761719 169.886719 12.039062 169.988281 10.472656 C 170.0625 9.445312 169.8125 8.796875 169.070312 8.105469 C 168.222656 7.3125 167.304688 7.019531 165.476562 6.957031 C 164.785156 6.933594 163.917969 6.964844 163.542969 7.019531 Z M 163.542969 7.019531 "/>
<path style=" stroke:none;fill-rule:nonzero;fill:rgb(0%,0%,0%);fill-opacity:1;" d="M 186.804688 7.007812 C 184.117188 7.4375 182.320312 8.964844 181.664062 11.402344 C 181.410156 12.320312 181.410156 14.613281 181.652344 15.628906 C 181.902344 16.609375 182.5 17.71875 183.15625 18.367188 C 183.761719 18.976562 184.859375 19.570312 185.851562 19.820312 C 186.730469 20.042969 189.574219 20.042969 190.492188 19.8125 C 192.65625 19.277344 193.992188 17.9375 194.601562 15.699219 C 194.890625 14.632812 194.914062 12.226562 194.652344 11.140625 C 194.128906 9.015625 192.800781 7.679688 190.703125 7.164062 C 189.886719 6.964844 187.652344 6.882812 186.804688 7.007812 Z M 188.957031 7.636719 C 189.59375 8.128906 189.773438 9.464844 189.773438 13.691406 C 189.773438 17.78125 189.605469 18.914062 188.914062 19.394531 C 188.621094 19.601562 187.871094 19.613281 187.484375 19.402344 C 187.105469 19.214844 186.75 18.398438 186.617188 17.425781 C 186.480469 16.476562 186.574219 9.644531 186.730469 8.964844 C 186.886719 8.230469 187.148438 7.75 187.460938 7.582031 C 187.871094 7.363281 188.644531 7.386719 188.957031 7.636719 Z M 188.957031 7.636719 "/>
<path style=" stroke:none;fill-rule:nonzero;fill:rgb(0%,0%,0%);fill-opacity:1;" d="M 204.558594 7.050781 C 203.460938 7.394531 202.710938 8.042969 202.25 9.039062 L 202 9.570312 L 202 7.21875 L 198.8125 7.21875 C 195.695312 7.21875 195.625 7.21875 195.625 7.425781 C 195.625 7.613281 195.695312 7.636719 196.355469 7.636719 L 197.085938 7.636719 L 197.085938 19.351562 L 196.355469 19.351562 C 195.695312 19.351562 195.625 19.371094 195.625 19.5625 C 195.625 19.769531 195.695312 19.769531 199.75 19.769531 C 203.804688 19.769531 203.878906 19.769531 203.878906 19.5625 C 203.878906 19.363281 203.804688 19.351562 202.9375 19.351562 L 202 19.351562 L 202 15.398438 C 202 11.820312 202.019531 11.359375 202.195312 10.636719 C 202.636719 8.945312 203.472656 7.949219 204.453125 7.949219 C 204.996094 7.949219 205.238281 8.105469 205.238281 8.472656 C 205.238281 8.640625 205.1875 8.890625 205.125 9.039062 C 205.019531 9.257812 204.914062 9.308594 204.515625 9.332031 C 204.046875 9.363281 204.035156 9.371094 203.941406 9.800781 C 203.796875 10.503906 203.941406 11.152344 204.359375 11.609375 C 204.832031 12.132812 205.28125 12.28125 206.230469 12.21875 C 207.191406 12.15625 207.609375 11.914062 208.019531 11.171875 C 208.289062 10.667969 208.320312 10.523438 208.320312 9.675781 C 208.308594 8.578125 208.113281 8.074219 207.464844 7.542969 C 206.765625 6.957031 205.507812 6.746094 204.558594 7.050781 Z M 204.558594 7.050781 "/>
<path style=" stroke:none;fill-rule:nonzero;fill:rgb(0%,0%,0%);fill-opacity:1;" d="M 35.320312 7.425781 C 35.320312 7.613281 35.394531 7.636719 36.105469 7.636719 L 36.886719 7.636719 L 36.886719 19.351562 L 36.15625 19.351562 C 35.5 19.351562 35.425781 19.371094 35.425781 19.5625 C 35.425781 19.769531 35.5 19.769531 39.398438 19.769531 C 43.292969 19.769531 43.367188 19.769531 43.367188 19.5625 C 43.367188 19.371094 43.292969 19.351562 42.636719 19.351562 L 41.90625 19.351562 L 41.90625 7.21875 L 38.613281 7.21875 C 35.394531 7.21875 35.320312 7.21875 35.320312 7.425781 Z M 35.320312 7.425781 "/>
</g>
</svg>
