<?xml version="1.0" encoding="iso-8859-1"?>
<!-- Generator: Adobe Illustrator 19.0.0, SVG Export Plug-In . SVG Version: 6.00 Build 0)  -->
<svg xmlns="http://www.w3.org/2000/svg" xmlns:xlink="http://www.w3.org/1999/xlink" version="1.1" id="Layer_1" x="0px" y="0px" viewBox="0 0 462.064 462.064" style="enable-background:new 0 0 462.064 462.064;" xml:space="preserve" width="512" height="512">
<g id="_x34_5._Ball_1_">
	<g id="XMLID_93_">
		<g>
			<g>
				<path style="fill:#FF7124;" d="M447.469,54.395c7.14,43.35,5.9,87.81-3.73,130.77l-166.84-166.84      c42.96-9.63,87.42-10.87,130.77-3.73C428.059,17.955,444.109,34.005,447.469,54.395z"/>
			</g>
			<g>
				<path style="fill:#F2D59F;" d="M276.899,18.325l166.84,166.84c-13.67,61.1-44.29,119.18-91.84,166.73      c-47.57,47.57-105.66,78.19-166.78,91.85l-166.8-166.8c13.66-61.12,44.28-119.21,91.85-166.78      C157.719,62.615,215.799,31.995,276.899,18.325z"/>
			</g>
			<g>
				<path style="fill:#FF7124;" d="M18.319,276.945l166.8,166.8c-42.95,9.62-87.39,10.86-130.73,3.74      c-20.4-3.35-36.46-19.41-39.81-39.81C7.459,364.335,8.699,319.895,18.319,276.945z"/>
			</g>
		</g>
		<g>
			<g>
				<path style="fill:#5E2A41;" d="M110.229,462.064c-19.151,0-38.337-1.569-57.461-4.711      c-24.689-4.055-44.002-23.367-48.057-48.057c-7.379-44.921-6.084-90.186,3.85-134.536      c14.523-64.98,47.213-124.342,94.537-171.666c47.305-47.305,106.65-79.992,171.618-94.527      c44.371-9.947,89.652-11.238,134.578-3.838c24.67,4.065,43.977,23.372,48.042,48.041c7.4,44.927,6.108,90.208-3.839,134.584      c-14.534,64.964-47.222,124.309-94.526,171.614c-47.324,47.324-106.686,80.014-171.67,94.538l0.004-0.001      C161.835,459.208,136.064,462.064,110.229,462.064z M351.779,20.002c-24.365,0-48.666,2.695-72.692,8.081      c-61.264,13.706-117.228,44.535-161.846,89.153c-44.636,44.636-75.468,100.616-89.162,161.89      c-9.372,41.843-10.594,84.546-3.632,126.928c2.663,16.216,15.347,28.9,31.563,31.564c42.381,6.961,85.084,5.74,126.924-3.631      c0.001,0,0.003-0.001,0.004-0.001c61.274-13.694,117.254-44.526,161.89-89.162c44.618-44.618,75.447-100.582,89.152-161.842      c9.384-41.864,10.602-84.579,3.622-126.962c-2.671-16.205-15.353-28.887-31.559-31.558      C387.987,21.488,369.864,20.002,351.779,20.002z"/>
			</g>
			<g>
				<path style="fill:#5E2A41;" d="M158.309,313.755c-2.559,0-5.119-0.977-7.071-2.929c-3.905-3.905-3.905-10.237,0-14.143      l145.42-145.42c3.905-3.905,10.237-3.905,14.143,0c3.905,3.905,3.905,10.237,0,14.143l-145.42,145.42      C163.427,312.779,160.868,313.755,158.309,313.755z"/>
			</g>
			<g>
				<path style="fill:#5E2A41;" d="M301.929,211.955c-2.56,0-5.118-0.976-7.071-2.929l-41.819-41.819      c-3.905-3.905-3.906-10.237-0.001-14.142c3.905-3.905,10.237-3.906,14.142-0.001l41.82,41.82c3.905,3.905,3.905,10.237,0,14.142      C307.047,210.978,304.488,211.955,301.929,211.955z"/>
			</g>
			<g>
				<path style="fill:#5E2A41;" d="M268.599,245.285c-2.56,0-5.118-0.976-7.071-2.929l-41.819-41.819      c-3.905-3.905-3.906-10.237,0-14.142c3.905-3.905,10.237-3.906,14.142-0.001l41.82,41.82c3.905,3.905,3.905,10.237,0,14.142      C273.717,244.308,271.158,245.285,268.599,245.285z"/>
			</g>
			<g>
				<path style="fill:#5E2A41;" d="M235.259,278.615c-2.559,0-5.119-0.976-7.071-2.929l-41.81-41.81      c-3.905-3.905-3.905-10.237,0-14.143c3.905-3.905,10.237-3.905,14.143,0l41.81,41.81c3.905,3.905,3.905,10.237,0,14.143      C240.377,277.639,237.818,278.615,235.259,278.615z"/>
			</g>
			<g>
				<path style="fill:#5E2A41;" d="M201.929,311.955c-2.56,0-5.118-0.976-7.071-2.929l-41.819-41.819      c-3.905-3.905-3.906-10.237-0.001-14.142c3.905-3.905,10.237-3.906,14.142-0.001l41.82,41.82      c3.905,3.905,3.905,10.237-0.001,14.142C207.047,310.978,204.488,311.955,201.929,311.955z"/>
			</g>
			<g>
				<path style="fill:#5E2A41;" d="M443.739,195.165c-2.559,0-5.119-0.976-7.071-2.929l-166.84-166.84      c-3.905-3.905-3.905-10.237,0-14.143c3.905-3.905,10.237-3.905,14.143,0l166.84,166.84c3.905,3.905,3.905,10.237,0,14.143      C448.857,194.189,446.298,195.165,443.739,195.165z"/>
			</g>
			<g>
				<path style="fill:#5E2A41;" d="M185.124,453.76c-2.554,0-5.106-0.974-7.057-2.924l-166.82-166.82      c-3.905-3.905-3.915-10.247-0.01-14.152c3.906-3.905,10.227-3.915,14.132-0.01l166.82,166.82      c3.905,3.905,3.915,10.247,0.01,14.152C190.245,452.781,187.684,453.76,185.124,453.76z"/>
			</g>
			<g>
				<path style="fill:#5E2A41;" d="M134.919,144.915c-2.559,0-5.117-0.976-7.07-2.928c-3.906-3.905-3.907-10.236-0.002-14.142      c34.408-34.418,74.888-59.827,120.316-75.521c5.22-1.803,10.915,0.966,12.717,6.186c1.804,5.22-0.966,10.914-6.186,12.717      c-42.539,14.696-80.458,38.503-112.703,70.758C140.039,143.938,137.479,144.915,134.919,144.915z"/>
			</g>
		</g>
	</g>
</g>















</svg>
