<?xml version="1.0" standalone="no"?>
<!DOCTYPE svg PUBLIC "-//W3C//DTD SVG 20010904//EN"
 "http://www.w3.org/TR/2001/REC-SVG-20010904/DTD/svg10.dtd">
<svg version="1.0" xmlns="http://www.w3.org/2000/svg"
 width="2000.000000pt" height="202.000000pt" viewBox="0 0 2000.000000 202.000000"
 preserveAspectRatio="xMidYMid meet">

<g transform="translate(0.000000,202.000000) scale(0.100000,-0.100000)"
fill="#000000" stroke="none">
<path d="M14790 1995 c-203 -37 -395 -93 -475 -138 -99 -56 -175 -284 -205
-607 -24 -266 1 -840 41 -967 25 -78 194 -182 309 -191 52 -3 80 1 145 23 189
63 412 172 509 248 41 32 75 95 76 137 0 84 -62 169 -138 189 -51 14 -139 -5
-360 -76 -78 -25 -145 -44 -147 -41 -10 10 -16 163 -8 191 8 26 22 33 138 76
161 59 288 124 337 173 87 87 69 241 -32 282 -80 32 -199 15 -350 -48 -46 -20
-86 -36 -87 -36 -7 0 -2 63 13 141 l15 86 107 43 c164 65 390 180 437 222 53
47 69 84 63 149 -6 61 -48 126 -98 151 -47 24 -134 22 -290 -7z"/>
<path d="M9680 2003 c-50 -8 -146 -47 -199 -80 -393 -251 -580 -1065 -355
-1551 88 -192 227 -317 396 -357 199 -47 403 16 546 169 107 115 121 232 36
311 -41 38 -120 35 -270 -12 -211 -64 -282 -50 -341 67 -41 81 -58 208 -49
360 20 332 107 564 221 586 77 14 92 -11 104 -177 11 -152 34 -194 118 -225
93 -33 185 -3 240 79 44 65 57 138 50 277 -10 207 -63 348 -171 456 -53 52
-73 65 -130 83 -63 19 -133 24 -196 14z"/>
<path d="M15870 2000 c-198 -41 -403 -253 -510 -527 -128 -327 -153 -641 -75
-950 67 -262 253 -468 463 -512 183 -38 381 20 514 152 67 66 97 116 105 178
8 59 -5 105 -41 144 -31 33 -37 35 -97 35 -44 0 -98 -11 -174 -34 -185 -56
-253 -56 -307 1 -66 71 -88 160 -88 356 0 274 57 512 144 602 43 46 80 61 121
51 37 -9 48 -40 55 -162 11 -172 50 -233 162 -249 67 -10 113 1 154 37 71 63
112 194 99 317 -6 59 -6 63 12 57 50 -19 125 -28 214 -24 l99 4 0 -486 c1
-569 9 -731 39 -811 72 -191 269 -182 330 16 19 60 20 91 19 457 -1 399 21
827 44 856 6 6 16 12 24 12 36 0 195 69 261 113 100 67 136 121 130 195 -3 43
-10 59 -38 88 -50 52 -115 68 -274 67 -340 -2 -723 -95 -869 -212 -21 -17 -42
-31 -45 -31 -3 0 -17 21 -31 48 -37 71 -132 166 -193 192 -58 25 -176 35 -247
20z"/>
<path d="M19375 1994 c-245 -41 -516 -159 -560 -243 -29 -56 -33 -169 -30
-811 2 -694 3 -707 56 -813 54 -107 144 -143 226 -90 65 43 133 264 133 434 0
108 4 114 85 149 41 16 80 30 88 30 10 0 36 -57 77 -167 114 -308 187 -431
271 -453 130 -35 220 73 205 245 -12 145 -85 351 -181 518 l-47 80 75 76 c198
200 255 408 186 671 -56 209 -208 352 -404 380 -83 11 -79 12 -180 -6z m95
-492 c62 -31 76 -131 31 -221 -28 -54 -116 -130 -194 -168 -37 -18 -72 -33
-79 -33 -10 0 -14 46 -17 195 -2 107 -2 195 0 195 2 0 36 11 74 25 83 29 137
31 185 7z"/>
<path d="M1766 1976 c-143 -53 -240 -308 -302 -801 -25 -198 -25 -573 0 -705
35 -190 86 -294 162 -331 70 -34 162 -5 204 63 50 82 79 273 89 586 l6 213 89
-218 c157 -384 214 -492 309 -586 127 -125 264 -127 352 -7 90 123 147 319
187 650 19 160 16 571 -5 695 -37 211 -70 305 -132 373 -104 115 -226 60 -280
-127 -33 -111 -40 -217 -40 -563 0 -191 -4 -340 -8 -332 -4 7 -48 132 -97 276
-161 478 -208 590 -295 706 -74 98 -159 137 -239 108z"/>
<path d="M10820 1963 c-251 -41 -454 -301 -531 -683 -26 -127 -35 -374 -20
-509 22 -183 72 -349 139 -459 80 -133 170 -211 293 -252 55 -19 79 -21 174
-17 132 5 190 25 287 98 255 191 368 639 292 1157 -55 375 -221 618 -453 662
-53 10 -132 11 -181 3z m108 -557 c34 -18 74 -90 98 -176 26 -91 26 -404 1
-503 -35 -138 -74 -201 -132 -212 -70 -13 -137 81 -171 240 -24 111 -24 364
-1 459 40 163 119 236 205 192z"/>
<path d="M17960 1959 c-193 -38 -363 -215 -455 -473 -56 -157 -76 -269 -82
-471 -8 -280 29 -485 122 -664 109 -210 260 -311 464 -311 141 1 230 31 328
112 104 87 173 195 227 358 52 159 69 276 69 480 1 673 -261 1050 -673 969z
m123 -550 c83 -38 136 -245 123 -489 -9 -192 -46 -328 -102 -381 -34 -32 -94
-32 -127 0 -33 30 -74 124 -94 213 -24 105 -23 380 0 468 42 157 117 227 200
189z"/>
<path d="M588 1945 c-122 -46 -240 -179 -329 -369 -106 -228 -211 -651 -240
-965 -20 -224 17 -425 89 -482 30 -23 110 -26 151 -5 92 48 170 203 201 404
10 61 15 73 33 77 19 4 66 11 288 42 l36 5 6 -53 c4 -30 7 -81 7 -114 1 -139
58 -318 116 -364 73 -57 166 -48 231 23 129 142 129 450 2 1101 -80 410 -164
587 -324 680 -43 26 -60 30 -140 32 -60 2 -102 -2 -127 -12z m113 -455 c50
-27 88 -176 92 -360 l2 -115 -75 -11 c-41 -6 -106 -15 -144 -19 l-69 -7 6 70
c17 173 73 374 118 423 29 32 40 34 70 19z"/>
<path d="M3405 1949 c-220 -27 -394 -106 -431 -196 -22 -52 -18 -107 11 -141
37 -44 113 -73 196 -74 l70 0 -6 -107 c-3 -58 -10 -221 -15 -362 -6 -140 -19
-332 -30 -425 -11 -93 -20 -176 -20 -185 0 -11 -20 -24 -59 -39 -111 -41 -184
-128 -185 -222 -1 -59 28 -92 98 -113 95 -29 325 -15 502 30 163 41 266 111
284 191 23 102 -46 181 -172 199 -31 5 -48 12 -48 21 0 8 9 103 20 212 23 230
40 502 40 635 0 52 3 121 6 154 l7 60 53 17 c106 33 174 110 174 194 0 62 -42
103 -135 132 -83 25 -240 34 -360 19z"/>
<path d="M4295 1941 c-194 -88 -339 -570 -338 -1126 0 -385 58 -637 167 -720
32 -25 36 -25 69 -12 37 16 61 45 99 122 66 131 102 363 114 735 l7 204 24
-114 c102 -497 247 -869 348 -894 33 -8 77 15 109 57 85 111 186 445 254 837
32 182 35 182 52 -10 24 -269 86 -622 137 -784 45 -143 75 -186 131 -186 74 0
132 110 164 310 18 116 18 756 0 895 -19 146 -50 306 -74 383 -68 222 -194
345 -317 312 -111 -30 -262 -267 -392 -618 l-53 -142 -41 117 c-111 314 -254
582 -339 634 -39 24 -70 24 -121 0z"/>
<path d="M6409 1951 c-203 -62 -374 -346 -489 -813 -108 -438 -128 -782 -54
-935 34 -71 64 -93 126 -93 76 0 124 33 180 125 47 75 98 246 98 326 0 21 6
32 23 39 24 10 327 54 331 49 1 -2 8 -71 14 -154 16 -221 54 -329 134 -388 36
-26 134 -28 172 -3 40 26 82 90 108 164 21 62 23 83 23 267 -1 214 -8 275 -71
620 -60 323 -109 490 -178 604 -48 79 -142 164 -202 185 -50 17 -169 20 -215
7z m95 -462 c54 -25 86 -138 93 -330 l6 -145 -130 -17 c-176 -23 -164 -25
-157 26 15 111 57 314 75 363 20 53 62 114 79 114 5 0 20 -5 34 -11z"/>
<path d="M7465 1946 c-40 -18 -59 -41 -90 -108 -68 -150 -125 -580 -125 -948
0 -335 55 -716 111 -776 35 -38 84 -49 204 -48 166 2 435 66 612 145 90 40
188 112 221 161 32 50 37 129 8 172 -58 89 -260 95 -560 17 l-148 -39 7 527
c8 555 4 627 -36 758 -37 120 -121 177 -204 139z"/>
<path d="M11832 1944 c-45 -23 -78 -74 -108 -169 -73 -231 -119 -768 -95
-1100 20 -266 57 -487 93 -545 50 -83 233 -89 518 -20 362 89 560 215 560 357
0 155 -203 191 -565 98 -71 -18 -138 -37 -147 -40 -17 -7 -18 4 -18 146 0 85
5 295 10 468 14 430 -1 607 -63 729 -39 78 -117 110 -185 76z"/>
<path d="M13085 1946 c-86 -38 -133 -163 -175 -463 -60 -434 -55 -861 16
-1218 25 -125 39 -151 92 -177 97 -47 365 -19 623 66 264 86 402 193 402 310
0 162 -199 195 -579 96 -82 -21 -150 -37 -152 -35 -2 2 1 158 7 348 19 613 13
800 -31 932 -42 127 -117 179 -203 141z"/>
</g>
</svg>
