<?xml version="1.0" standalone="no"?>
<!DOCTYPE svg PUBLIC "-//W3C//DTD SVG 20010904//EN"
 "http://www.w3.org/TR/2001/REC-SVG-20010904/DTD/svg10.dtd">
<svg version="1.0" xmlns="http://www.w3.org/2000/svg"
 width="150.000000pt" height="15.000000pt" viewBox="0 0 150.000000 15.000000"
 preserveAspectRatio="xMidYMid meet">

<g transform="translate(0.000000,15.000000) scale(0.100000,-0.100000)"
fill="#000000" stroke="none">
<path d="M38 139 c-18 -10 -38 -67 -38 -106 0 -28 26 -30 33 -3 3 11 10 20 15
20 5 0 12 -9 15 -20 6 -23 22 -26 30 -7 8 20 -9 97 -24 112 -10 10 -19 11 -31
4z m22 -49 c0 -11 -4 -20 -10 -20 -5 0 -10 9 -10 20 0 11 5 20 10 20 6 0 10
-9 10 -20z"/>
<path d="M120 130 c-14 -27 -9 -112 8 -118 8 -2 12 8 13 30 l0 33 17 -33 c9
-19 22 -31 31 -30 21 4 35 77 21 112 -13 34 -30 25 -30 -17 l-1 -32 -13 31
c-18 42 -33 49 -46 24z"/>
<path d="M241 138 c-19 -6 -22 -11 -13 -20 15 -15 16 -88 2 -88 -5 0 -10 -4
-10 -10 0 -13 57 -13 65 -1 3 5 1 12 -5 16 -13 8 -13 72 0 80 29 18 -3 37 -39
23z"/>
<path d="M311 132 c-16 -29 -15 -125 2 -120 6 3 14 18 17 34 l6 29 7 -32 c3
-18 11 -33 16 -33 6 0 14 15 19 33 l9 32 7 -32 c12 -52 26 -38 26 26 0 71 -22
100 -41 57 -12 -25 -29 -35 -29 -18 0 5 -6 17 -14 27 -13 18 -14 18 -25 -3z"/>
<path d="M465 130 c-22 -24 -34 -120 -15 -120 6 0 14 9 17 20 3 11 12 20 19
20 8 0 14 -9 14 -20 0 -11 7 -20 15 -20 10 0 15 10 15 29 0 85 -31 128 -65 91z
m25 -54 c-14 -14 -22 -2 -14 18 5 14 9 15 15 4 4 -7 4 -17 -1 -22z"/>
<path d="M553 134 c-10 -28 -9 -112 2 -122 14 -13 77 6 72 21 -2 7 -14 11 -26
10 -19 -3 -21 2 -21 47 0 50 -15 75 -27 44z"/>
<path d="M696 128 c-20 -27 -21 -88 -3 -113 10 -13 21 -16 40 -11 34 8 37 39
5 34 -18 -2 -24 3 -26 20 -2 13 -1 31 3 40 6 16 7 16 16 0 16 -29 31 -21 27
15 -4 41 -38 50 -62 15z"/>
<path d="M790 130 c-38 -38 -18 -130 28 -130 18 0 42 42 42 75 0 31 -24 75
-41 75 -5 0 -18 -9 -29 -20z m40 -55 c0 -27 -15 -41 -25 -25 -10 16 4 62 15
55 6 -3 10 -17 10 -30z"/>
<path d="M975 141 c-9 -16 -8 -122 1 -131 13 -11 76 9 71 23 -2 7 -14 11 -26
10 -19 -3 -21 2 -21 47 0 47 -12 71 -25 51z"/>
<path d="M1078 139 c-14 -8 -18 -23 -18 -65 0 -63 16 -77 60 -52 25 14 28 14
39 -3 13 -22 41 -25 59 -7 19 19 14 31 -12 24 -28 -7 -39 12 -30 50 7 26 24
33 24 9 0 -8 5 -15 10 -15 6 0 13 7 16 15 11 28 24 15 24 -24 0 -22 3 -46 6
-55 12 -31 24 -15 24 31 0 34 6 53 21 70 19 19 20 23 6 28 -8 4 -30 2 -49 -3
-22 -6 -39 -5 -50 2 -23 14 -56 -16 -64 -59 -4 -25 -12 -34 -30 -38 -29 -5
-32 9 -4 18 11 3 20 13 20 22 0 10 -6 14 -20 10 -28 -7 -25 8 5 21 14 6 25 16
25 22 0 13 -40 12 -62 -1z"/>
<path d="M1332 134 c-27 -19 -31 -94 -6 -118 18 -19 20 -19 44 -6 36 19 37
110 0 130 -11 6 -24 4 -38 -6z m33 -74 c-4 -11 -11 -20 -16 -20 -10 0 -12 53
-2 64 11 11 25 -23 18 -44z"/>
<path d="M1426 137 c-13 -10 -16 -24 -14 -70 3 -55 20 -79 26 -37 5 28 19 25
26 -5 9 -36 28 -31 25 7 -2 18 1 45 5 61 14 47 -27 74 -68 44z m34 -36 c0 -6
-4 -13 -10 -16 -5 -3 -10 1 -10 9 0 9 5 16 10 16 6 0 10 -4 10 -9z"/>
<path d="M876 118 c-10 -38 -7 -83 7 -100 9 -12 19 -13 45 -6 36 10 39 35 4
31 -18 -2 -21 4 -24 44 -3 50 -22 68 -32 31z"/>
</g>
</svg>
