<?xml version="1.0" standalone="no"?>
<!DOCTYPE svg PUBLIC "-//W3C//DTD SVG 20010904//EN"
 "http://www.w3.org/TR/2001/REC-SVG-20010904/DTD/svg10.dtd">
<svg version="1.0" xmlns="http://www.w3.org/2000/svg"
 width="500.000000pt" height="51.000000pt" viewBox="0 0 500.000000 51.000000"
 preserveAspectRatio="xMidYMid meet">

<g transform="translate(0.000000,51.000000) scale(0.100000,-0.100000)"
fill="#000000" stroke="none">
<path d="M2385 490 c-75 -38 -124 -144 -125 -270 0 -167 98 -260 217 -204 44
22 67 56 59 89 -7 28 -24 31 -92 14 -38 -10 -48 -9 -61 4 -21 21 -28 101 -14
169 18 83 71 119 71 47 0 -30 30 -69 53 -69 30 0 51 40 50 95 -3 116 -70 170
-158 125z"/>
<path d="M3657 494 c-32 -7 -67 -18 -77 -24 -34 -18 -53 -110 -52 -253 1 -142
8 -165 61 -187 28 -11 39 -10 88 9 66 25 123 65 123 87 0 7 -9 23 -19 33 -18
18 -23 19 -73 5 -71 -19 -78 -18 -78 9 0 19 11 28 54 46 73 30 93 53 77 87
-10 23 -16 25 -49 21 -20 -3 -47 -8 -58 -12 -19 -6 -21 -4 -17 19 4 20 21 33
78 61 77 37 93 59 68 94 -16 24 -43 25 -126 5z"/>
<path d="M3944 496 c-97 -43 -160 -233 -121 -367 36 -122 149 -167 236 -93 22
18 31 35 31 55 0 38 -20 45 -79 30 -26 -6 -55 -9 -64 -5 -27 10 -40 77 -28
151 17 111 64 153 77 68 13 -93 104 -77 104 18 0 20 4 22 40 19 l40 -4 0 -152
c0 -161 9 -199 46 -204 41 -6 49 21 54 196 l5 165 50 27 c52 28 68 58 45 86
-24 28 -191 11 -264 -28 -28 -14 -30 -14 -55 13 -31 35 -75 44 -117 25z"/>
<path d="M4820 499 c-60 -16 -109 -41 -115 -58 -8 -27 -9 -374 -1 -399 8 -25
41 -46 57 -36 17 10 39 70 39 108 0 31 13 46 39 46 5 0 18 -26 30 -57 26 -69
46 -93 76 -93 43 0 47 66 9 151 l-26 58 26 31 c35 42 49 98 37 150 -11 49 -34
78 -78 96 -37 16 -44 16 -93 3z m58 -147 c4 -27 -28 -67 -59 -75 -17 -5 -19 1
-19 42 0 57 5 63 45 59 23 -2 31 -9 33 -26z"/>
<path d="M150 493 c-51 -19 -90 -84 -119 -199 -28 -114 -34 -175 -21 -223 9
-34 15 -41 36 -41 26 0 64 49 64 82 0 27 29 48 66 48 33 0 34 -1 34 -40 0 -50
24 -100 49 -100 10 0 26 9 37 21 48 54 -3 382 -68 436 -17 15 -59 23 -78 16z
m41 -151 c18 -62 10 -86 -30 -90 l-34 -3 6 46 c7 50 22 85 37 85 5 0 14 -17
21 -38z"/>
<path d="M410 468 c-30 -49 -44 -131 -45 -253 0 -120 13 -170 48 -181 33 -10
54 26 62 104 3 37 7 76 8 87 1 11 15 -13 32 -55 56 -140 123 -181 165 -101 27
54 43 170 37 266 -6 93 -21 141 -49 156 -44 23 -68 -37 -69 -176 l0 -90 -38
108 c-43 123 -67 161 -104 165 -21 3 -31 -4 -47 -30z"/>
<path d="M1594 486 c-42 -19 -68 -58 -100 -152 -31 -93 -46 -263 -24 -289 29
-35 73 -6 92 61 12 46 22 54 66 54 30 0 32 -2 32 -34 0 -71 29 -114 70 -101
42 13 51 104 25 246 -36 191 -80 250 -161 215z m47 -133 c5 -15 9 -43 7 -62
-3 -33 -6 -36 -37 -39 l-34 -3 7 40 c14 88 37 115 57 64z"/>
<path d="M2672 483 c-65 -32 -103 -117 -104 -233 -1 -102 16 -156 63 -203 37
-38 42 -39 89 -35 60 6 94 33 122 96 28 62 34 172 14 250 -19 77 -38 106 -81
126 -41 20 -61 20 -103 -1z m72 -145 c30 -43 15 -208 -19 -208 -28 0 -45 43
-45 115 0 68 16 115 40 115 5 0 16 -10 24 -22z"/>
<path d="M4462 483 c-65 -32 -104 -118 -104 -233 -1 -102 16 -156 63 -203 37
-38 42 -39 90 -35 98 10 144 89 144 248 0 84 -3 102 -28 151 -40 82 -96 106
-165 72z m72 -145 c30 -43 15 -208 -19 -208 -28 0 -45 43 -45 115 0 68 16 115
40 115 5 0 16 -10 24 -22z"/>
<path d="M780 472 c-55 -27 -50 -82 8 -82 l25 0 -6 -132 -6 -131 -36 -32 c-19
-18 -35 -37 -35 -42 0 -21 27 -33 73 -33 68 0 126 19 144 47 14 21 14 25 -2
43 -10 11 -24 20 -32 20 -10 0 -12 16 -8 73 14 188 16 197 36 207 31 17 42 46
23 64 -22 23 -138 22 -184 -2z"/>
<path d="M1041 456 c-49 -79 -68 -325 -30 -401 37 -76 78 -15 86 131 l6 95 24
-93 c53 -206 99 -202 147 13 l23 103 7 -76 c7 -85 31 -185 48 -205 35 -43 58
26 58 179 0 182 -31 288 -83 288 -32 0 -61 -34 -97 -114 l-32 -69 -22 55 c-37
91 -59 123 -88 126 -20 2 -30 -4 -47 -32z"/>
<path d="M1852 477 c-34 -41 -50 -323 -23 -414 12 -43 12 -43 60 -43 104 0
234 62 218 105 -13 34 -95 38 -169 10 -16 -7 -17 3 -12 131 7 157 -5 217 -42
222 -11 2 -26 -3 -32 -11z"/>
<path d="M2934 454 c-31 -75 -33 -359 -3 -415 10 -20 17 -21 80 -17 114 9 213
71 185 116 -10 17 -57 20 -117 8 l-59 -13 0 147 c0 167 -9 210 -46 210 -19 0
-29 -9 -40 -36z"/>
<path d="M3251 472 c-33 -61 -42 -377 -12 -431 12 -22 17 -23 80 -19 73 6 166
41 181 69 30 54 -10 75 -106 56 l-64 -14 0 153 c0 95 -4 163 -12 179 -13 30
-52 34 -67 7z"/>
</g>
</svg>
