<?xml version="1.0" encoding="iso-8859-1"?>
<!-- Generator: Adobe Illustrator 19.0.0, SVG Export Plug-In . SVG Version: 6.00 Build 0)  -->
<svg version="1.1" id="Layer_1" xmlns="http://www.w3.org/2000/svg" xmlns:xlink="http://www.w3.org/1999/xlink" x="0px" y="0px"
	 viewBox="0 0 511.999 511.999" style="enable-background:new 0 0 511.999 511.999;" xml:space="preserve">
<path style="fill:#6ECDFB;" d="M365.079,201.149c8.84,9.068,8.772,23.586-0.205,32.575c-9.057,9.057-23.734,9.057-32.791,0
	l-34.949-18.859l-18.859-34.949c-9.057-9.057-9.057-23.734,0-32.791c8.988-8.988,23.506-9.057,32.574-0.205l35.16,19.069
	L365.079,201.149z"/>
<path style="fill:#1895C2;" d="M332.084,233.723c9.057,9.057,9.057,23.734,0,32.791c-9.057,9.045-23.734,9.045-32.791,0
	l-34.949-18.859l-18.859-34.949c-9.057-9.057-9.057-23.734,0-32.791s23.734-9.057,32.791,0L332.084,233.723z"/>
<path style="fill:#6ECDFB;" d="M299.293,266.514c9.057,9.045,9.057,23.734,0,32.779c-9.045,9.057-23.734,9.057-32.779,0
	l-34.949-18.859l-18.859-34.949c-9.057-9.057-9.057-23.734,0-32.779c9.045-9.057,23.723-9.057,32.779,0L299.293,266.514z"/>
<path style="fill:#1895C2;" d="M266.514,299.293c9.045,9.057,9.045,23.734,0,32.791c-9.057,9.057-23.734,9.057-32.791,0
	l-34.949-18.859l-18.859-34.949c-9.057-9.057-9.057-23.734,0-32.791c9.057-9.057,23.734-9.057,32.791,0L266.514,299.293z"/>
<path style="fill:#6ECDFB;" d="M233.723,332.084c9.057,9.057,9.057,23.734,0,32.791c-8.988,8.977-23.506,9.045-32.575,0.205
	c-0.08-0.068-0.148-0.137-0.216-0.205l-34.949-18.859l-18.859-34.949c-0.068-0.068-0.137-0.137-0.205-0.216
	c-8.852-9.068-8.784-23.586,0.205-32.574c9.057-9.057,23.734-9.057,32.791,0L233.723,332.084z"/>
<g>
	<path style="fill:#8AA92C;" d="M71.35,365.693c0,0-26.135,7.93-58.14,21.447c-20.651,8.715-19.206,53.384,19.536,92.114
		c38.73,38.741,83.399,40.186,92.114,19.536c13.517-32.006,21.447-58.14,21.447-58.14l-21.388-53.569L71.35,365.693z"/>
	<path style="fill:#8AA92C;" d="M479.254,32.745C440.524-5.996,395.855-7.441,387.14,13.21
		c-13.517,32.006-21.447,58.14-21.447,58.14l21.388,53.569l53.569,21.387c0,0,26.135-7.93,58.14-21.447
		C519.44,116.144,517.995,71.475,479.254,32.745z"/>
</g>
<path style="fill:#668018;" d="M43.894,468.106c-3.333-3.333-3.333-8.736,0-12.068l10.068-10.068c3.333-3.333,8.736-3.333,12.068,0
	c3.333,3.333,3.333,8.735,0,12.067l-10.068,10.068C52.629,471.439,47.227,471.439,43.894,468.106z M77.422,488.604
	c-2.917-2.917-3.363-7.604-0.86-11.046l44.273-60.898c2.772-3.812,8.108-4.656,11.92-1.884c3.812,2.777,4.655,8.109,1.884,11.92
	l-44.273,60.898c-2.772,3.812-8.108,4.656-11.92,1.884C78.078,489.211,77.735,488.917,77.422,488.604z M23.399,434.577
	c-0.313-0.313-0.606-0.655-0.875-1.024c-2.772-3.812-1.927-9.149,1.884-11.92l60.896-44.272c3.813-2.772,9.15-1.923,11.92,1.884
	c2.772,3.812,1.927,9.149-1.884,11.92l-60.896,44.272C31.001,437.94,26.315,437.494,23.399,434.577z M78.512,433.488
	c-3.333-3.333-3.333-8.736,0-12.068l24.288-24.288c3.333-3.333,8.736-3.333,12.068,0s3.333,8.735,0,12.067l-24.288,24.288
	C87.247,436.821,81.845,436.821,78.512,433.488z M415.651,133.78c-0.313-0.313-0.605-0.654-0.875-1.024
	c-2.772-3.813-1.927-9.149,1.884-11.92l60.898-44.273c3.81-2.77,9.144-1.927,11.92,1.884c2.772,3.813,1.927,9.149-1.884,11.92
	l-60.898,44.273C423.255,137.143,418.568,136.697,415.651,133.78z M378.221,96.349c-2.917-2.917-3.362-7.603-0.86-11.046
	l44.272-60.896c2.772-3.812,8.108-4.655,11.92-1.884c3.81,2.778,4.655,8.108,1.884,11.92L391.165,95.34
	c-2.772,3.812-8.108,4.655-11.92,1.884C378.876,96.955,378.534,96.662,378.221,96.349z M397.133,114.868
	c-3.333-3.333-3.333-8.736,0-12.068l24.288-24.288c3.333-3.333,8.736-3.333,12.068,0c3.333,3.333,3.333,8.735,0,12.067
	l-24.288,24.288C405.867,118.2,400.465,118.2,397.133,114.868z M445.971,66.03c-3.333-3.333-3.333-8.736,0-12.068l10.068-10.068
	c3.333-3.333,8.736-3.333,12.068,0c3.333,3.333,3.333,8.735,0,12.067l-10.068,10.068C454.705,69.362,449.303,69.362,445.971,66.03z"
	/>
<g>
	<path style="fill:#C2DC71;" d="M211.513,375.443l-74.957-74.957c-18.011-18-47.195-18-65.206,0c-18,18.011-18,47.195,0,65.206
		l74.957,74.957c18.011,18,47.195,18,65.206,0C229.512,422.638,229.512,393.454,211.513,375.443z"/>
	<path style="fill:#C2DC71;" d="M440.649,146.307L365.693,71.35c-18.011-18-47.195-18-65.206,0c-18,18.011-18,47.195,0,65.206
		l74.957,74.957c18.011,18,47.195,18,65.206,0C458.649,193.502,458.649,164.318,440.649,146.307z"/>
</g>
<g>
</g>
<g>
</g>
<g>
</g>
<g>
</g>
<g>
</g>
<g>
</g>
<g>
</g>
<g>
</g>
<g>
</g>
<g>
</g>
<g>
</g>
<g>
</g>
<g>
</g>
<g>
</g>
<g>
</g>
</svg>
